<svg class="animated" id="freepik_stories-copyright" xmlns="http://www.w3.org/2000/svg" viewBox="0 0 500 500" version="1.1" xmlns:xlink="http://www.w3.org/1999/xlink" xmlns:svgjs="http://svgjs.com/svgjs"><style>svg#freepik_stories-copyright:not(.animated) .animable {opacity: 0;}svg#freepik_stories-copyright.animated #freepik--background-complete--inject-9 {animation: 3s Infinite  linear floating;animation-delay: 0s;}svg#freepik_stories-copyright.animated #freepik--Document--inject-9 {animation: 1.5s Infinite  linear floating;animation-delay: 0s;}svg#freepik_stories-copyright.animated #freepik--light-bulb--inject-9 {animation: 1.5s Infinite  linear floating;animation-delay: 0s;}            @keyframes floating {                0% {                    opacity: 1;                    transform: translateY(0px);                }                50% {                    transform: translateY(-10px);                }                100% {                    opacity: 1;                    transform: translateY(0px);                }            }        </style><g id="freepik--background-complete--inject-9" class="animable" style="transform-origin: 244.52px 236.405px;"><path d="M270.77,355.68a51.07,51.07,0,0,0,1.79,12.39l8.82,34.28-6.57,43.24h64.73l-4.6-24,15.18-1.65s7.9,0,8.5-6.3,1.15-20.5,1.15-20.5l9.15.51a2.73,2.73,0,0,0,2.94-2.49h0a2.52,2.52,0,0,0-.23-1.18c-1.52-3.46-9-25.24-9-25.24s5-34.94-25.6-47.78a54.54,54.54,0,0,0-37.06-1.4C287.81,319.67,270.38,331.24,270.77,355.68Z" style="fill: rgb(235, 235, 235); transform-origin: 321.313px 379.282px;" id="elfzkb233v3h" class="animable"></path><circle cx="70.94" cy="238.35" r="32.58" style="fill: rgb(245, 245, 245); transform-origin: 70.94px 238.35px;" id="elqtqset1wv9d" class="animable"></circle><path d="M70.94,264.1a25.75,25.75,0,1,1,25.75-25.75A25.78,25.78,0,0,1,70.94,264.1Zm0-46.28a20.54,20.54,0,1,0,20.54,20.53A20.55,20.55,0,0,0,70.94,217.82Z" style="fill: rgb(224, 224, 224); transform-origin: 70.94px 238.35px;" id="elgyuon6fzrd" class="animable"></path><path d="M64.1,249.65a13.83,13.83,0,0,1-5.34-19.2,13.23,13.23,0,0,1,5.34-4.92,16.54,16.54,0,0,1,7.72-1.77,14.93,14.93,0,0,1,7.41,1.77,10.44,10.44,0,0,1,4.62,5.07l-6,3.24a6.6,6.6,0,0,0-6-3.69,6.87,6.87,0,0,0-5,2,8.44,8.44,0,0,0,0,10.89,6.87,6.87,0,0,0,5,2,6.53,6.53,0,0,0,6-3.7l6,3.3a10.67,10.67,0,0,1-4.62,5,14.73,14.73,0,0,1-7.41,1.8A16.54,16.54,0,0,1,64.1,249.65Z" style="fill: rgb(224, 224, 224); transform-origin: 70.345px 237.6px;" id="elyq7n3wynk7" class="animable"></path><path d="M414.6,198.86a26.54,26.54,0,0,1,6.5-2.83l1.33-6.42,10.86-.19,1.57,6.37a27,27,0,0,1,6.59,2.59l5.49-3.59,7.81,7.54-3.4,5.61a26.68,26.68,0,0,1,2.82,6.5l6.43,1.34.19,10.86-6.38,1.56a26.5,26.5,0,0,1-2.59,6.59l3.6,5.49-7.55,7.81-5.61-3.4a26.61,26.61,0,0,1-6.49,2.82l-1.34,6.43-10.86.19L422,247.75a26.43,26.43,0,0,1-6.58-2.59l-5.49,3.6-7.82-7.55,3.4-5.61a26.61,26.61,0,0,1-2.82-6.49l-6.43-1.34-.19-10.86,6.38-1.56a26.35,26.35,0,0,1,2.59-6.59l-3.6-5.49,7.55-7.82,5.61,3.41Zm5.79,14.46a11.65,11.65,0,1,0,16.48-.29A11.66,11.66,0,0,0,420.39,213.32Z" style="fill: rgb(245, 245, 245); transform-origin: 428.43px 221.775px;" id="el5ty1m3ya5g" class="animable"></path><path d="M414.18,303.17a18.75,18.75,0,0,1,4.51-2l.93-4.46,7.54-.13,1.08,4.43a18.65,18.65,0,0,1,4.58,1.8l3.81-2.5,5.42,5.24-2.36,3.89a18.92,18.92,0,0,1,2,4.51l4.46.93.13,7.54-4.42,1.08a18.65,18.65,0,0,1-1.8,4.58l2.49,3.81-5.23,5.42-3.9-2.36a18.2,18.2,0,0,1-4.51,2l-.93,4.46-7.54.13-1.08-4.42a18.42,18.42,0,0,1-4.57-1.8l-3.82,2.5-5.42-5.24,2.36-3.9a18.58,18.58,0,0,1-2-4.51l-4.46-.92-.13-7.54,4.43-1.09a18,18,0,0,1,1.79-4.57l-2.49-3.81,5.23-5.43,3.9,2.36Zm4,10.05a8.09,8.09,0,1,0,11.44-.2A8.09,8.09,0,0,0,418.2,313.22Z" style="fill: rgb(245, 245, 245); transform-origin: 423.8px 319.06px;" id="elimtm8cc324" class="animable"></path><path d="M223.34,379a17.83,17.83,0,0,1,4.51-2l.92-4.47,7.54-.13,1.09,4.43a18.42,18.42,0,0,1,4.57,1.8l3.81-2.5,5.43,5.24-2.36,3.89a18.49,18.49,0,0,1,2,4.51l4.47.93.13,7.54L251,399.37a18.65,18.65,0,0,1-1.8,4.58l2.5,3.81-5.24,5.42-3.89-2.36a18.53,18.53,0,0,1-4.51,2l-.93,4.46-7.54.14L228.48,413a18.65,18.65,0,0,1-4.58-1.8l-3.81,2.5-5.42-5.24,2.36-3.9a18.29,18.29,0,0,1-2-4.5l-4.46-.93-.13-7.54,4.42-1.09a18.42,18.42,0,0,1,1.8-4.57l-2.5-3.81,5.24-5.43,3.9,2.37Zm4,10a8.08,8.08,0,1,0,11.43-.2A8.08,8.08,0,0,0,227.36,389.05Z" style="fill: rgb(245, 245, 245); transform-origin: 232.945px 394.91px;" id="elpkhs4prgj28" class="animable"></path><path d="M65.68,129.83a25.82,25.82,0,0,1,6.23-2.71L73.19,121l10.42-.18,1.49,6.11a25.51,25.51,0,0,1,6.32,2.49l5.27-3.45,7.49,7.23-3.26,5.38a25.4,25.4,0,0,1,2.7,6.23l6.17,1.28.18,10.42-6.11,1.5a25.66,25.66,0,0,1-2.49,6.32l3.45,5.26L97.59,177l-5.39-3.26A25.58,25.58,0,0,1,86,176.49l-1.29,6.16-10.41.18-1.5-6.11a25.66,25.66,0,0,1-6.32-2.49l-5.26,3.45-7.5-7.23L57,165.07a25.43,25.43,0,0,1-2.71-6.23l-6.16-1.28-.19-10.42,6.12-1.5a25.63,25.63,0,0,1,2.48-6.32l-3.45-5.26,7.24-7.49,5.38,3.26Zm5.55,13.87a11.17,11.17,0,1,0,15.8-.28A11.18,11.18,0,0,0,71.23,143.7Z" style="fill: rgb(245, 245, 245); transform-origin: 78.955px 151.825px;" id="elrhn8kygju1" class="animable"></path><path d="M278.86,51.3a25.27,25.27,0,0,1,6.23-2.71l1.28-6.17,10.41-.18,1.5,6.12a25.25,25.25,0,0,1,6.32,2.48l5.26-3.45,7.5,7.24L314.1,60a25.4,25.4,0,0,1,2.7,6.23L323,67.52l.18,10.42L317,79.43a25.1,25.1,0,0,1-2.48,6.32L318,91l-7.24,7.49-5.38-3.26a25.24,25.24,0,0,1-6.23,2.7l-1.28,6.17-10.41.18L286,98.19a25.66,25.66,0,0,1-6.32-2.49l-5.27,3.45-7.49-7.24,3.26-5.38a25.33,25.33,0,0,1-2.7-6.22L261.27,79l-.18-10.41,6.12-1.5a25.25,25.25,0,0,1,2.48-6.32l-3.45-5.26,7.24-7.5,5.38,3.27Zm5.55,13.87a11.17,11.17,0,1,0,15.8-.28A11.17,11.17,0,0,0,284.41,65.17Z" style="fill: rgb(245, 245, 245); transform-origin: 292.135px 73.26px;" id="elic4bi9kdgv" class="animable"></path><path d="M216.33,34.11a19.47,19.47,0,0,1,4.74-2.06l1-4.69,7.92-.14,1.14,4.65a19.21,19.21,0,0,1,4.81,1.9l4-2.63,5.7,5.51-2.48,4.09a19.86,19.86,0,0,1,2.06,4.74l4.69,1,.14,7.92-4.66,1.14a19.56,19.56,0,0,1-1.89,4.81l2.63,4L240.61,70l-4.09-2.48a19.44,19.44,0,0,1-4.74,2l-1,4.7-7.93.13-1.14-4.65a19.49,19.49,0,0,1-4.8-1.89l-4,2.63L207.22,65l2.48-4.1a19.62,19.62,0,0,1-2.06-4.73l-4.69-1-.14-7.93,4.65-1.14a19,19,0,0,1,1.9-4.8l-2.63-4,5.51-5.7,4.09,2.48Zm4.23,10.56a8.5,8.5,0,1,0,12-.21A8.49,8.49,0,0,0,220.56,44.67Z" style="fill: rgb(245, 245, 245); transform-origin: 226.43px 50.785px;" id="elg9yncvdq19" class="animable"></path><path d="M36.24,95.88a11.45,11.45,0,0,1,2.81-1.22l.57-2.77,4.69-.08L45,94.56a11.19,11.19,0,0,1,2.85,1.12l2.37-1.56,3.37,3.26L52.1,99.8a11.45,11.45,0,0,1,1.22,2.81l2.77.57.09,4.69-2.75.68a12.08,12.08,0,0,1-1.12,2.84l1.55,2.37-3.26,3.37-2.42-1.47a11.55,11.55,0,0,1-2.8,1.22l-.58,2.78-4.69.08L39.44,117a12.15,12.15,0,0,1-2.85-1.12l-2.37,1.55-3.37-3.26,1.47-2.42a11.55,11.55,0,0,1-1.22-2.8l-2.77-.58-.08-4.69L31,103a11.34,11.34,0,0,1,1.12-2.85l-1.56-2.37,3.26-3.37,2.42,1.47Zm2.5,6.24a5,5,0,1,0,7.11-.12A5,5,0,0,0,38.74,102.12Z" style="fill: rgb(245, 245, 245); transform-origin: 42.215px 105.775px;" id="elehkp49wphs" class="animable"></path></g><g id="freepik--Floor--inject-9" class="animable" style="transform-origin: 249px 463.76px;"><path d="M467.5,463.76c0,.15-97.83.26-218.49.26s-218.51-.11-218.51-.26,97.81-.26,218.51-.26S467.5,463.62,467.5,463.76Z" style="fill: rgb(38, 50, 56); transform-origin: 249px 463.76px;" id="elay21o9fwkhv" class="animable"></path></g><g id="freepik--Shield--inject-9" class="animable" style="transform-origin: 129.353px 113.155px;"><path d="M175.6,64.38,131.85,46.11,86.62,58.46c-5.81,2.2-10.86,3.41-11.18,8.46L73.87,92.07a92.46,92.46,0,0,0,11.45,51,90.05,90.05,0,0,0,38.58,37.13c18.45-4.48,32.9-18.65,42-31a92.19,92.19,0,0,0,17.71-49.12L185,77.49C185.45,70.28,181.69,66.51,175.6,64.38Z" style="fill: rgb(69, 90, 100); transform-origin: 129.353px 113.155px;" id="el4smd4rdpw8m" class="animable"></path><g id="elf7tvkxtwsur"><g style="opacity: 0.3; transform-origin: 129.227px 111.68px;" class="animable"><path d="M124.4,170.58l-.16-.08A77,77,0,0,1,91.42,138a82.86,82.86,0,0,1-9.68-44.63l1.37-21.89c.27-4.22,3.93-5.6,8.17-7.2.53-.2,1.08-.4,1.63-.62l38.52-10.88.17.07,37,15.83c5.93,2.12,8.62,6,8.26,11.89l-1.24,19.68a82.65,82.65,0,0,1-15.16,43c-5.94,8.29-18.49,22.85-35.86,27.21Zm7-116.7L93.23,64.65l-1.6.61c-4.08,1.53-7.3,2.74-7.52,6.32L82.74,93.47a81.84,81.84,0,0,0,9.56,44.09,76,76,0,0,0,32.23,32c17-4.34,29.27-18.63,35.11-26.78a81.63,81.63,0,0,0,15-42.51l1.23-19.68c.34-5.45-2.08-8.91-7.61-10.89l0,0Z" style="fill: rgb(255, 255, 255); transform-origin: 129.227px 111.68px;" id="eljnb0n695o5k" class="animable"></path></g></g><path d="M139.4,97.28l.33-3.09c.5-5.59-3.95-10.58-9.94-11.11S118.53,86.67,118,92.25l-.33,3.14a5.85,5.85,0,0,0-5.69,5.16l-1.66,18.24A5.9,5.9,0,0,0,115.9,125l20.26,1.8a5.91,5.91,0,0,0,6.59-5.14l1.66-18.25A5.85,5.85,0,0,0,139.4,97.28Zm-9.67,18.65-5.3-.47,1.15-3.5a3,3,0,0,1-1.29-2.7,3.25,3.25,0,0,1,6.46.57,3,3,0,0,1-1.66,2.38C129.34,113.63,129.73,115.93,129.73,115.93Zm7.33-18.88-17-1.52.33-3.06a8.31,8.31,0,0,1,9.24-7.2c4.69.41,8.19,4.32,7.79,8.7Z" style="fill: rgb(255, 255, 255); transform-origin: 127.366px 104.939px;" id="el9a0hd7jln9u" class="animable"></path><g id="ele4y3ogab0c"><g style="opacity: 0.1; transform-origin: 109.817px 88.5253px;" class="animable"><path d="M91.89,118.06c-3,.17-5.34-41-1.34-46.07s40.66-13,40.66-13-1.77,37.86-2.74,40.3S91.89,118.06,91.89,118.06Z" style="fill: rgb(255, 255, 255); transform-origin: 109.817px 88.5253px;" id="elrwv4ezn795" class="animable"></path></g></g><g id="elj0ct66u7tz"><g style="opacity: 0.1; transform-origin: 110.9px 135.516px;" class="animable"><path d="M94.5,124.28l32.8-14.77s-2.72,52.92-3.83,52A81.39,81.39,0,0,1,94.5,124.28Z" style="fill: rgb(255, 255, 255); transform-origin: 110.9px 135.516px;" id="el0wjotw92gjbj" class="animable"></path></g></g><path d="M90.77,117a13.16,13.16,0,0,1-.39-1.75c-.23-1.14-.5-2.79-.79-4.84a125.61,125.61,0,0,1-.26-32.26c.26-2.06.51-3.71.72-4.85a10.35,10.35,0,0,1,.37-1.76,2.08,2.08,0,0,1,0,.47l-.15,1.32c-.15,1.14-.34,2.8-.55,4.86a152.22,152.22,0,0,0-.76,16.09,153.85,153.85,0,0,0,1,16.08c.24,2.05.46,3.71.63,4.85.06.53.12,1,.17,1.32A1.52,1.52,0,0,1,90.77,117Z" style="fill: rgb(255, 255, 255); transform-origin: 89.5998px 94.27px;" id="ela1eyn9l56z9" class="animable"></path></g><g id="freepik--Document--inject-9" class="animable" style="transform-origin: 382.508px 128.942px;"><path d="M466.55,202.9,347.41,231a4.38,4.38,0,0,1-5.27-3.26L303.2,62.38a4.39,4.39,0,0,1,3.26-5.27L425.6,29.05a4.38,4.38,0,0,1,5.27,3.26l38.94,165.32A4.39,4.39,0,0,1,466.55,202.9Z" style="fill: rgb(235, 235, 235); transform-origin: 386.505px 130.025px;" id="el4nvhnufpqjn" class="animable"></path><path d="M458.83,201,339.7,229a4.37,4.37,0,0,1-5.27-3.26L295.49,60.45a4.38,4.38,0,0,1,3.26-5.27L417.89,27.12a4.37,4.37,0,0,1,5.26,3.26L462.09,195.7A4.37,4.37,0,0,1,458.83,201Z" style="fill: rgb(255, 255, 255); transform-origin: 378.794px 128.061px;" id="elhss8gzs9bbb" class="animable"></path><path d="M458.83,201a4.61,4.61,0,0,0,1.43-.65,4.34,4.34,0,0,0,1.3-1.4,4.29,4.29,0,0,0,.58-2.56c-.84-4-2.32-9.81-4.08-17.34-3.57-15.08-8.74-36.88-15.12-63.82L432.53,71.13q-2.8-11.88-5.8-24.56-1.49-6.33-3-12.84c-.62-2.1-.58-4.66-2.55-5.82a4.18,4.18,0,0,0-3.08-.58l-3.33.78L298.82,55.43a4.12,4.12,0,0,0-3.18,4.06,8.64,8.64,0,0,0,.33,1.88q.91,3.83,1.8,7.64l3.57,15.13q3.53,15,7,29.58l13.15,55.92c4.19,17.82,8.17,34.75,11.9,50.6.47,2,.91,4,1.4,5.87a4.15,4.15,0,0,0,4.42,2.8c3.78-.82,7.56-1.76,11.23-2.6l21.16-5,63.85-15,17.36-4,4.52-1,1.54-.34s-.51.14-1.53.39l-4.5,1.09-17.35,4.13L371.64,221.7l-21.15,5c-3.69.85-7.39,1.78-11.28,2.63a4.62,4.62,0,0,1-4.87-3.09c-.51-2-.93-3.91-1.41-5.9-3.74-15.85-7.74-32.78-11.94-50.59s-8.62-36.52-13.19-55.92q-3.42-14.53-7-29.57-1.77-7.51-3.56-15.13l-1.8-7.64a8.45,8.45,0,0,1-.35-2,4.59,4.59,0,0,1,.44-2,4.67,4.67,0,0,1,3.14-2.55L414.63,27.64l3.34-.78a4.59,4.59,0,0,1,3.43.65,4.64,4.64,0,0,1,2,2.85c.26,1.09.51,2.18.77,3.27q1.53,6.51,3,12.84,3,12.66,5.77,24.56c3.72,15.85,7.19,30.61,10.35,44.09,6.31,26.95,11.42,48.76,15,63.85,1.73,7.55,3.17,13.38,4,17.38a4.35,4.35,0,0,1-.61,2.61,4.41,4.41,0,0,1-1.34,1.4,4.36,4.36,0,0,1-1.07.52Z" style="fill: rgb(38, 50, 56); transform-origin: 378.698px 128.062px;" id="elsyyrg2fw2g" class="animable"></path><path d="M353.06,73.6a7,7,0,0,1-1.3.41l-3.58.93c-3,.76-7.24,1.78-11.88,2.87s-8.87,2.06-11.92,2.73l-3.63.77a6.23,6.23,0,0,1-1.34.21,8.12,8.12,0,0,1,1.3-.41l3.58-.93c3-.76,7.24-1.78,11.89-2.87s8.86-2.06,11.91-2.73l3.63-.77A6.23,6.23,0,0,1,353.06,73.6Z" style="fill: rgb(38, 50, 56); transform-origin: 336.235px 77.56px;" id="el4za9s5k8jmr" class="animable"></path><path d="M415.91,74.06c0,.14-20.78,5.16-46.49,11.21S322.85,96.12,322.81,96s20.78-5.16,46.49-11.21S415.87,73.92,415.91,74.06Z" style="fill: rgb(38, 50, 56); transform-origin: 369.36px 85.0296px;" id="elnqqgufe7bl" class="animable"></path><path d="M419.5,89.32c0,.14-20.78,5.16-46.48,11.21s-46.58,10.86-46.61,10.72,20.77-5.17,46.49-11.22S419.47,89.18,419.5,89.32Z" style="fill: rgb(38, 50, 56); transform-origin: 372.955px 100.285px;" id="el4q40znev1jo" class="animable"></path><path d="M422.91,103.78c0,.14-20.78,5.16-46.49,11.21s-46.57,10.85-46.61,10.71,20.78-5.16,46.49-11.21S422.88,103.64,422.91,103.78Z" style="fill: rgb(38, 50, 56); transform-origin: 376.36px 114.74px;" id="elpd3m5hoi1ec" class="animable"></path><path d="M426.5,119c0,.14-20.78,5.16-46.48,11.22S333.44,141.11,333.41,141s20.78-5.16,46.49-11.22S426.47,118.9,426.5,119Z" style="fill: rgb(38, 50, 56); transform-origin: 379.955px 130px;" id="elbats846he89" class="animable"></path><path d="M429.91,133.5c0,.14-20.78,5.16-46.49,11.22s-46.57,10.85-46.61,10.71,20.78-5.17,46.49-11.22S429.88,133.36,429.91,133.5Z" style="fill: rgb(38, 50, 56); transform-origin: 383.36px 144.465px;" id="eled703l369l" class="animable"></path><path d="M433.5,148.76c0,.14-20.78,5.16-46.48,11.22s-46.58,10.85-46.61,10.71,20.78-5.16,46.49-11.22S433.47,148.62,433.5,148.76Z" style="fill: rgb(38, 50, 56); transform-origin: 386.955px 159.725px;" id="el7xdy64dnko3" class="animable"></path><path d="M436.91,163.22c0,.14-20.78,5.16-46.49,11.22s-46.57,10.85-46.61,10.71,20.78-5.16,46.49-11.22S436.88,163.08,436.91,163.22Z" style="fill: rgb(38, 50, 56); transform-origin: 390.36px 174.185px;" id="eldpjlh68zch6" class="animable"></path><path d="M440.22,177.28c0,.14-20.78,5.16-46.49,11.21s-46.57,10.85-46.61,10.71S367.9,194,393.61,188,440.19,177.14,440.22,177.28Z" style="fill: rgb(38, 50, 56); transform-origin: 393.67px 188.24px;" id="elpeb0galikqn" class="animable"></path></g><g id="freepik--Plant--inject-9" class="animable" style="transform-origin: 397.365px 402.509px;"><path d="M397.73,439.84s-3.56-24.44-3.26-38.66,0-30.21,0-30.21h1.64s-1.11,28.22.1,45.24,4.38,23.63,4.38,23.63h-2.84" style="fill: rgb(38, 50, 56); transform-origin: 397.521px 405.405px;" id="elurzw7ao1wy" class="animable"></path><path d="M408.31,343.47a4.24,4.24,0,0,0-1.49-2.19,4.15,4.15,0,0,0-3.56,0c-4.95,1.75-9.34,11-11.34,15.83l6.57,22.14C410.35,368.28,412.41,353.84,408.31,343.47Z" style="fill: rgb(69, 90, 100); transform-origin: 401.08px 360.064px;" id="el96x1jraf45n" class="animable"></path><path d="M406.44,342.18a1.72,1.72,0,0,1-.1.29c-.08.21-.19.48-.32.8-.29.7-.69,1.71-1.17,3-1,2.51-2.2,6-3.31,10s-1.85,7.61-2.32,10.26c-.23,1.33-.41,2.41-.52,3.15l-.14.86a.94.94,0,0,1-.07.3,1.44,1.44,0,0,1,0-.31c0-.22.05-.51.09-.86.08-.75.22-1.83.43-3.17a94.15,94.15,0,0,1,5.64-20.29c.5-1.25.94-2.25,1.25-2.94.15-.32.28-.58.37-.79S406.43,342.17,406.44,342.18Z" style="fill: rgb(38, 50, 56); transform-origin: 402.461px 356.51px;" id="eljdsb6sc6eh" class="animable"></path><path d="M395.57,384.59a20,20,0,0,1-10.12-16.83c-.24-4.92,1.27-9.74,3-14.35a1.85,1.85,0,0,1,.69-1,1.73,1.73,0,0,1,1.68.26c4.48,2.55,7.19,7.41,8.63,12.35a25,25,0,0,1,1,10.16,16.93,16.93,0,0,1-4.88,9.45" style="fill: rgb(69, 90, 100); transform-origin: 393.01px 368.465px;" id="el9wvdk7258v5" class="animable"></path><path d="M395.57,384.59a1.71,1.71,0,0,1,0-.3l0-.85c0-.73,0-1.8-.09-3.12a85.72,85.72,0,0,0-1.14-10.23c-.69-4-1.52-7.51-2.13-10.08l-.72-3-.19-.83a1.28,1.28,0,0,1-.05-.29,1.33,1.33,0,0,1,.1.28l.24.81c.2.71.48,1.74.81,3,.66,2.56,1.52,6.11,2.2,10.09a73.44,73.44,0,0,1,1.07,10.26c0,1.33,0,2.4,0,3.13,0,.35,0,.63,0,.85A1.16,1.16,0,0,1,395.57,384.59Z" style="fill: rgb(38, 50, 56); transform-origin: 393.46px 370.24px;" id="elqlii44uergq" class="animable"></path><g id="elvid35hy5g9"><g style="opacity: 0.3; transform-origin: 393.01px 368.465px;" class="animable"><path d="M395.57,384.59a20,20,0,0,1-10.12-16.83c-.24-4.92,1.27-9.74,3-14.35a1.85,1.85,0,0,1,.69-1,1.73,1.73,0,0,1,1.68.26c4.48,2.55,7.19,7.41,8.63,12.35a25,25,0,0,1,1,10.16,16.93,16.93,0,0,1-4.88,9.45" id="el1zvtjfbau3d" class="animable" style="transform-origin: 393.01px 368.465px;"></path></g></g><path d="M402.52,422c6.06,1.34,11.06,5.61,16.9,7.69,3.87,1.38,8.25,1.86,11.34,4.57-.74-1.87-2.5-3.12-4.21-4.19a75.58,75.58,0,0,0-15.32-7.31c-2.75-.95-5.73-1.74-8.54-1" style="fill: rgb(69, 90, 100); transform-origin: 416.64px 427.864px;" id="elcsstpg9481j" class="animable"></path><path d="M393.76,427.39c-7.59-.13-15.59-6.59-23.14-7,7.9-2.55,19.23-.46,23.14,7" style="fill: rgb(69, 90, 100); transform-origin: 382.19px 423.372px;" id="el9u1oqemyzdc" class="animable"></path><path d="M396.72,409.17a24.71,24.71,0,0,1,12.14-.82,74.17,74.17,0,0,1,11.85,3.22c-.39-2.64-2.52-4.62-4.53-6.37a31.63,31.63,0,0,0-4.75-3.66,10.69,10.69,0,0,0-5.71-1.61,9.05,9.05,0,0,0-6.3,3.18,10.51,10.51,0,0,0-2.7,6.06" style="fill: rgb(69, 90, 100); transform-origin: 408.715px 405.75px;" id="elp1o14m36fx" class="animable"></path><path d="M381.14,400.79c-4.78-4.08-12-3.68-18.3-3.54a148.8,148.8,0,0,1,28.38,17.69C391.48,410.5,387.18,406,381.14,400.79Z" style="fill: rgb(69, 90, 100); transform-origin: 377.036px 406.055px;" id="elifu7n6j3nfe" class="animable"></path><g id="elsdzngsvsh3"><g style="opacity: 0.3; transform-origin: 377.036px 406.055px;" class="animable"><path d="M381.14,400.79c-4.78-4.08-12-3.68-18.3-3.54a148.8,148.8,0,0,1,28.38,17.69C391.48,410.5,387.18,406,381.14,400.79Z" id="ely844k8an87" class="animable" style="transform-origin: 377.036px 406.055px;"></path></g></g><path d="M398.87,395.16a53.84,53.84,0,0,1,7.35-4.27c2.52-1.14,4.86-3,7.29-4.28,3.15-1.71,5.88-4.08,8.77-6.19s6.07-4,9.61-4.59a18.91,18.91,0,0,0-8.74.51,57.19,57.19,0,0,0-8.23,3.2c-3.73,1.68-7.52,3.4-10.57,6.13s-5.8,5.41-5.48,9.49" style="fill: rgb(69, 90, 100); transform-origin: 415.367px 385.35px;" id="el8lycvhzww9l" class="animable"></path><path d="M419.28,427.39l-.24-.11-.66-.34c-.57-.31-1.39-.76-2.42-1.28-.52-.27-1.08-.55-1.7-.84s-1.27-.6-2-.9a29.33,29.33,0,0,0-4.67-1.63,10,10,0,0,0-4.87-.12,14,14,0,0,0-2.07.61,10.9,10.9,0,0,0-3.76,2.59c-.44.47-.65.76-.67.74a1,1,0,0,1,.14-.22,6.74,6.74,0,0,1,.46-.59,9.58,9.58,0,0,1,2.06-1.82,9.9,9.9,0,0,1,1.69-.9,13.47,13.47,0,0,1,2.09-.66,10.09,10.09,0,0,1,5,.11,27.89,27.89,0,0,1,4.71,1.66c.7.31,1.36.62,2,.93s1.18.59,1.68.87c1,.55,1.84,1,2.39,1.36l.64.38C419.22,427.33,419.29,427.38,419.28,427.39Z" style="fill: rgb(38, 50, 56); transform-origin: 407.75px 424.524px;" id="elsldi32z0fu" class="animable"></path><path d="M388.1,423.62a3.09,3.09,0,0,1,.47.14,11.15,11.15,0,0,1,1.24.54,15.09,15.09,0,0,1,6.34,6.09,12.54,12.54,0,0,1,.59,1.22,2,2,0,0,1,.16.47s-.33-.63-.92-1.59a16.75,16.75,0,0,0-6.26-6C388.73,423.93,388.08,423.67,388.1,423.62Z" style="fill: rgb(38, 50, 56); transform-origin: 392.5px 427.85px;" id="elrihf9un3ko" class="animable"></path><path d="M371.3,400.41a1.2,1.2,0,0,1,.32.1l.91.32,1.44.53c.56.21,1.17.52,1.86.82a43.78,43.78,0,0,1,9.88,6.3,48.47,48.47,0,0,1,4.61,4.53c1.3,1.51,2.41,2.92,3.27,4.15s1.52,2.25,2,3c.22.33.39.6.52.81a1.73,1.73,0,0,1,.17.29s-.08-.08-.21-.26-.33-.44-.56-.78c-.48-.69-1.16-1.7-2.05-2.91s-2-2.61-3.3-4.09a49.39,49.39,0,0,0-4.6-4.5,46,46,0,0,0-9.79-6.33c-.68-.31-1.28-.63-1.83-.85l-1.41-.57-.9-.37A1.62,1.62,0,0,1,371.3,400.41Z" style="fill: rgb(38, 50, 56); transform-origin: 383.79px 410.835px;" id="el1q0e1ol8ix3" class="animable"></path><path d="M408.12,404.91a3.2,3.2,0,0,1-.61-.08l-.7-.13c-.27-.05-.59-.05-.93-.09a9.41,9.41,0,0,0-7.59,2.79,10.94,10.94,0,0,0-1.53,1.89,16.06,16.06,0,0,0-1,2,2.14,2.14,0,0,1,.15-.59,8.59,8.59,0,0,1,.73-1.5,9.85,9.85,0,0,1,1.51-2,9.24,9.24,0,0,1,7.79-2.81c.35.05.67.06.94.13l.69.18A2.88,2.88,0,0,1,408.12,404.91Z" style="fill: rgb(38, 50, 56); transform-origin: 401.94px 407.808px;" id="eluh76fbkitvh" class="animable"></path><path d="M415.75,381.24a1.6,1.6,0,0,1-.29.17l-.85.46c-.74.4-1.8,1-3.08,1.74s-2.79,1.72-4.4,2.87a37.28,37.28,0,0,0-4.91,4.11,12.52,12.52,0,0,0-2,2.6q-.75,1.44-1.41,2.76a51.73,51.73,0,0,0-2.11,4.81,29.4,29.4,0,0,0-1,3.38c-.2.81-.27,1.27-.3,1.26a2.75,2.75,0,0,1,0-.33c0-.22.08-.54.16-1a26.19,26.19,0,0,1,.95-3.42,47.33,47.33,0,0,1,2.07-4.85c.43-.89.9-1.81,1.39-2.77a13,13,0,0,1,2-2.67,36.9,36.9,0,0,1,5-4.13c1.63-1.14,3.15-2.07,4.45-2.82s2.38-1.3,3.13-1.67l.87-.42A1.14,1.14,0,0,1,415.75,381.24Z" style="fill: rgb(38, 50, 56); transform-origin: 405.573px 393.32px;" id="elecl9us9d28" class="animable"></path><path d="M394.46,404.22a2.76,2.76,0,0,1-.15-.64c-.09-.47-.2-1.05-.33-1.75a45,45,0,0,0-3.61-11.16c-.29-.65-.54-1.19-.74-1.62a2.86,2.86,0,0,1-.24-.62,6.4,6.4,0,0,1,.34.57c.2.37.48.91.81,1.59a40,40,0,0,1,2.26,5.46,38.94,38.94,0,0,1,1.36,5.75c.12.74.21,1.35.25,1.77A2.88,2.88,0,0,1,394.46,404.22Z" style="fill: rgb(38, 50, 56); transform-origin: 391.926px 396.325px;" id="eleb8owx7cul" class="animable"></path><path d="M393.91,387a20.61,20.61,0,0,0-2.47-8.19,27,27,0,0,0-18.34-13.68l17,25.3,2.19,4.52A13,13,0,0,0,393.91,387Z" style="fill: rgb(69, 90, 100); transform-origin: 383.549px 380.04px;" id="elmgxdyci2wj" class="animable"></path><rect x="378.78" y="436.82" width="39.48" height="7" style="fill: rgb(63, 157, 239); transform-origin: 398.52px 440.32px;" id="el3jjj7kdy344" class="animable"></rect><polygon points="381.73 442.43 385.09 464.14 411.3 464.14 415.31 442.43 381.73 442.43" style="fill: rgb(63, 157, 239); transform-origin: 398.52px 453.285px;" id="el05in66pc5xwl" class="animable"></polygon><path d="M418.24,443.83c0,.07-8.9.13-19.89.13s-19.89-.06-19.89-.13,8.91-.14,19.89-.14S418.24,443.75,418.24,443.83Z" style="fill: rgb(38, 50, 56); transform-origin: 398.35px 443.825px;" id="el4l1aok3bdof" class="animable"></path></g><g id="freepik--light-bulb--inject-9" class="animable" style="transform-origin: 257.461px 238.155px;"><path d="M368.32,194.08A110.88,110.88,0,1,0,209.94,294c0,13.14-.07,28-.07,28l97.18.26s.62-15.7.88-29.71A110.83,110.83,0,0,0,368.32,194.08Z" style="fill: rgb(63, 157, 239); transform-origin: 257.44px 202.595px;" id="elpu21t36uaj" class="animable"></path><g id="elho7jjr6jjpr"><g style="opacity: 0.1; transform-origin: 299.32px 222.077px;" class="animable"><path d="M368.36,194a110.39,110.39,0,0,0-20.87-65c13,37.24,8.1,80.44-13.29,113.64-22.72,35.26-57.66,61.46-103.92,61.46,17.32,13.73,40.17,11.27,62.23,10.1,4.94-.26,10-.55,14.9-1.16.19-5.74.42-13.4.55-20.62A110.84,110.84,0,0,0,368.36,194Z" id="elm1xwzu9bmr" class="animable" style="transform-origin: 299.32px 222.077px;"></path></g></g><g id="elkgl36bxu3ai"><g style="opacity: 0.3; transform-origin: 195.109px 143.858px;" class="animable"><path d="M224.83,116.68c-1.31-3.19-4.83-5.52-9-6.78a23.86,23.86,0,0,0-18,2c-16.28,8.56-25.54,18.9-31.27,37.27-1.95,6.22-2.93,16.5.11,22.61a12.31,12.31,0,0,0,7.43,6.5c8.57,2.51,15.39-5.8,18.07-13.75,2.49-7.41,3.4-15.78,8.68-21.54,4.35-4.75,10.85-6.77,16.27-10.25S227.27,122.64,224.83,116.68Z" style="fill: rgb(255, 255, 255); transform-origin: 195.109px 143.858px;" id="el02rt9gv50evb" class="animable"></path></g></g><g id="elfxdpavrwhl6"><g style="opacity: 0.3; transform-origin: 245.514px 108.954px;" class="animable"><path d="M257,102.71c-3.21-5.61-11.32-7.95-16.06-5.83a14.26,14.26,0,0,0-7.75,9.77,13.06,13.06,0,0,0,5.75,13.43,12.37,12.37,0,0,0,14.44-1.34C257.18,115.21,259.57,107.22,257,102.71Z" style="fill: rgb(255, 255, 255); transform-origin: 245.514px 108.954px;" id="el5zbrtjxbke2" class="animable"></path></g></g><g id="freepik--2ggvdetif--inject-9" class="animable" style="transform-origin: 258.43px 389.325px;"><path d="M236.82,385.27a30.23,30.23,0,0,1,6.33,5.64,6.55,6.55,0,0,0,5.16,2.47l19.55,0a6.59,6.59,0,0,0,5.49-2.88c1.43-2.12,4-4.64,6.69-5.18Z" style="fill: rgb(69, 90, 100); transform-origin: 258.43px 389.325px;" id="el46ilo3sraxa" class="animable"></path></g><path d="M215.75,330.77c0,.4,4.48,31,6.19,42.63A14.42,14.42,0,0,0,230,384.49a13.53,13.53,0,0,0,5.56,1.23l42.77.08s11.18,0,13.73-8.85c2.69-9.32,7.8-46,7.8-46Z" style="fill: rgb(38, 50, 56); transform-origin: 257.805px 358.285px;" id="elp1iggy2e9t" class="animable"></path><path d="M294.8,372.87l-74.51.12a2.12,2.12,0,0,1-2.12-2.12v-.23a2.11,2.11,0,0,1,2.11-2.12l74.52-.13a2.12,2.12,0,0,1,2.12,2.12v.23A2.13,2.13,0,0,1,294.8,372.87Z" style="fill: rgb(224, 224, 224); transform-origin: 257.545px 370.69px;" id="elorre4xf0en" class="animable"></path><path d="M294.8,372.87a2.43,2.43,0,0,0,1.44-.67,2.17,2.17,0,0,0,.57-1.78,2,2,0,0,0-1.56-1.83c-4-.06-10.06.07-17.41.09l-57.55.2a1.76,1.76,0,0,0-1.47.8,1.67,1.67,0,0,0-.28.81,2.36,2.36,0,0,0,.07.89,1.74,1.74,0,0,0,1.17,1.17,10.77,10.77,0,0,0,1.94.08h23.37l25.87,0,17.45.09,4.74.05,1.23,0a1.24,1.24,0,0,1,.42,0l-.42,0-1.23,0-4.74.08-17.45.14-25.87.12-15.28.05-8.09,0h-1a3.48,3.48,0,0,1-1.12-.11,2.47,2.47,0,0,1-1.65-1.64,3.15,3.15,0,0,1-.1-1.17,2.46,2.46,0,0,1,2.47-2.27h57.55c7.38.05,13.3,0,17.48.14a2.25,2.25,0,0,1,1.7,2.1,2.3,2.3,0,0,1-.67,1.89A1.9,1.9,0,0,1,294.8,372.87Z" style="fill: rgb(38, 50, 56); transform-origin: 257.449px 370.569px;" id="elmz39b2to1y" class="animable"></path><path d="M296.4,363.24l-77.67.13a2.11,2.11,0,0,1-2.12-2.11V361a2.11,2.11,0,0,1,2.11-2.12l77.67-.13a2.14,2.14,0,0,1,2.13,2.12v.23A2.12,2.12,0,0,1,296.4,363.24Z" style="fill: rgb(224, 224, 224); transform-origin: 257.565px 361.06px;" id="elkzd0u71ngze" class="animable"></path><path d="M296.4,363.24a2.29,2.29,0,0,0,1.48-.71,2.22,2.22,0,0,0,.51-1.87,2,2,0,0,0-1.77-1.73l-18.1.13-59.79.2a1.77,1.77,0,0,0-1.51.86,1.69,1.69,0,0,0-.25.85,2.08,2.08,0,0,0,.12.92,1.73,1.73,0,0,0,1.32,1.09c.58.06,1.39,0,2.07,0h24.28l26.87,0,18.13.08,4.92.06,1.28,0,.44,0a1.38,1.38,0,0,1-.44,0l-1.28,0-4.92.08-18.12.14-26.88.12-15.88,0-8.4,0c-.73,0-1.36,0-2.2,0a2.46,2.46,0,0,1-1.86-1.53,2.89,2.89,0,0,1-.17-1.21,2.47,2.47,0,0,1,2.48-2.41h59.78c7.66,0,13.83,0,18.14.1a2.24,2.24,0,0,1,2,2,2.41,2.41,0,0,1-.62,2A1.82,1.82,0,0,1,296.4,363.24Z" style="fill: rgb(38, 50, 56); transform-origin: 257.459px 360.885px;" id="el1bz3z55wjk2" class="animable"></path><path d="M297.42,353.62l-79.68.14a2.12,2.12,0,0,1-2.12-2.12v-.23a2.13,2.13,0,0,1,2.11-2.13l79.69-.13a2.12,2.12,0,0,1,2.12,2.12v.23A2.11,2.11,0,0,1,297.42,353.62Z" style="fill: rgb(224, 224, 224); transform-origin: 257.58px 351.455px;" id="elloz2rz5obod" class="animable"></path><path d="M297.42,353.62a2.18,2.18,0,0,0,2-2.67,2,2,0,0,0-1.91-1.65l-18.55.14-61.21.21a1.76,1.76,0,0,0-1.76,1.77,2,2,0,0,0,.15.94,1.77,1.77,0,0,0,1.42,1c.65,0,1.44,0,2.15,0h24.85l27.52,0,18.55.08,5.05.06,1.31,0a2.36,2.36,0,0,1,.44,0,1.38,1.38,0,0,1-.44,0l-1.31,0-5.05.07-18.55.15-27.52.12-16.25,0-8.6,0c-.74,0-1.42,0-2.23,0a2.48,2.48,0,0,1-2-1.45,2.73,2.73,0,0,1-.22-1.23,2.48,2.48,0,0,1,2.48-2.5H279l18.56.09a2.23,2.23,0,0,1,2.11,1.9A2.46,2.46,0,0,1,299,353,1.89,1.89,0,0,1,297.42,353.62Z" style="fill: rgb(38, 50, 56); transform-origin: 257.499px 351.25px;" id="elyvq8f1u03u" class="animable"></path><path d="M299.06,344l-82.92.14A2.12,2.12,0,0,1,214,342v-.23a2.12,2.12,0,0,1,2.12-2.12l82.91-.14a2.12,2.12,0,0,1,2.12,2.12v.23A2.11,2.11,0,0,1,299.06,344Z" style="fill: rgb(224, 224, 224); transform-origin: 257.575px 341.825px;" id="eluwe2rbfadai" class="animable"></path><path d="M299.06,344a2.17,2.17,0,0,0,1.95-2.8,2,2,0,0,0-2.13-1.53l-19.24.15-63.5.21a1.78,1.78,0,0,0-1.56,1,2.17,2.17,0,0,0,0,1.88,1.75,1.75,0,0,0,1.56.92h28.05l28.55,0,19.24.08,5.23.06,1.37,0,.46,0a2.1,2.1,0,0,1-.46,0l-1.37,0-5.23.07-19.24.15-28.55.13-16.86,0-8.92,0h-2.27a2.52,2.52,0,0,1-2.2-1.29,2.65,2.65,0,0,1-.3-1.28,2.56,2.56,0,0,1,.28-1.28,2.48,2.48,0,0,1,2.2-1.34h63.5l19.24.08a2.26,2.26,0,0,1,2.34,1.76,2.47,2.47,0,0,1-.5,2.16,2.08,2.08,0,0,1-1.19.67A1.2,1.2,0,0,1,299.06,344Z" style="fill: rgb(38, 50, 56); transform-origin: 257.454px 341.725px;" id="elrupfgp1z1y" class="animable"></path><path d="M205,304.38c0,.79,1.73,19.5,2.62,29.11a11.56,11.56,0,0,0,5.22,8.63l4.36,2.83,82.7.16,4.31-2.78a11.57,11.57,0,0,0,5.26-8.73l2.51-29Z" style="fill: rgb(63, 157, 239); transform-origin: 258.49px 324.745px;" id="el5yajvr6m3ug" class="animable"></path><g id="elvbhgx0hn0cc"><g style="opacity: 0.3; transform-origin: 257.655px 373.851px;" class="animable"><path d="M223.06,372.8c8,1.82,15.9,2,24.65,2,7.06,0,14,.19,21.64.05,5.62-.11,10.79-.38,16.39-.61,2.83-.12,5.94-.83,6.51-1.4Z" id="eln3nt4jcawcm" class="animable" style="transform-origin: 257.655px 373.851px;"></path></g></g><g id="elfugw2ujn9r8"><g style="opacity: 0.3; transform-origin: 257.415px 364.182px;" class="animable"><path d="M220.13,363.14c8.58,1.82,17.14,2,26.57,2,7.61,0,15.07.19,23.34,0,6-.1,11.62-.37,17.66-.6,3.05-.12,6.4-.83,7-1.4Z" id="elbqorree6jlk" class="animable" style="transform-origin: 257.415px 364.182px;"></path></g></g><g id="eloscmou26z"><g style="opacity: 0.3; transform-origin: 257.43px 354.632px;" class="animable"><path d="M220.15,353.59c8.58,1.82,17.14,2,26.57,2,7.61,0,15.07.19,23.33,0,6.06-.1,11.63-.37,17.66-.6,3.06-.12,6.41-.83,7-1.4Z" id="ely5tyhsx1wr8" class="animable" style="transform-origin: 257.43px 354.632px;"></path></g></g><g id="elez5947dou"><g style="opacity: 0.3; transform-origin: 257.445px 345.042px;" class="animable"><path d="M220.16,344c8.59,1.82,17.15,2,26.57,2,7.62,0,15.08.19,23.34,0,6.05-.1,11.63-.37,17.66-.6,3.06-.12,6.41-.83,7-1.4Z" id="elxl6cdnzp8fp" class="animable" style="transform-origin: 257.445px 345.042px;"></path></g></g><g id="el4vqv815udcg"><g style="opacity: 0.3; transform-origin: 258.49px 324.745px;" class="animable"><path d="M205,304.38c0,.79,1.73,19.5,2.62,29.11a11.56,11.56,0,0,0,5.22,8.63l4.36,2.83,82.7.16,4.31-2.78a11.57,11.57,0,0,0,5.26-8.73l2.51-29Z" id="elp02ik0dpar" class="animable" style="transform-origin: 258.49px 324.745px;"></path></g></g><path d="M307.46,337.57c0,.2-22.12.33-49.4.27s-49.41-.25-49.41-.45,22.12-.32,49.41-.27S307.46,337.38,307.46,337.57Z" style="fill: rgb(38, 50, 56); transform-origin: 258.055px 337.482px;" id="el1t3uw6928uo" class="animable"></path><path d="M311.41,304c0,.22-24,.45-53.64.51s-53.67-.07-53.68-.29,24-.45,53.65-.51S311.41,303.81,311.41,304Z" style="fill: rgb(38, 50, 56); transform-origin: 257.75px 304.111px;" id="elzalkxe2yue" class="animable"></path><path d="M199.34,278.28s-.1,0-.28-.18l-.79-.57c-.68-.52-1.72-1.24-3-2.28a99.56,99.56,0,0,1-10.1-9.35c-2-2.11-4.08-4.53-6.22-7.21a107.93,107.93,0,0,1-6.28-8.94,102.49,102.49,0,0,1-15.6-47.08c-.33-3.84-.35-7.5-.31-10.92s.33-6.61.69-9.5A98.8,98.8,0,0,1,160,168.72c.38-1.58.79-2.78,1-3.6l.29-.93c.07-.21.11-.32.11-.31a1.31,1.31,0,0,1-.06.32l-.24,1c-.2.83-.58,2-.92,3.62a107,107,0,0,0-2.35,13.53c-.33,2.88-.52,6-.61,9.46s0,7.05.34,10.87a103.65,103.65,0,0,0,15.54,46.87c2,3.26,4.16,6.21,6.21,8.93s4.16,5.1,6.15,7.21a107,107,0,0,0,10,9.45c1.22,1.07,2.25,1.81,2.9,2.36l.76.61Z" style="fill: rgb(38, 50, 56); transform-origin: 178.042px 221.08px;" id="elmulg2sdmtgh" class="animable"></path></g><g id="freepik--Symbol--inject-9" class="animable" style="transform-origin: 261.09px 196.55px;"><path d="M261.09,252.55a56,56,0,1,1,56-56A56,56,0,0,1,261.09,252.55Zm0-100.62a44.65,44.65,0,1,0,44.65,44.65A44.7,44.7,0,0,0,261.09,151.93Z" style="fill: rgb(63, 157, 239); transform-origin: 261.09px 196.55px;" id="el0l0cs6vfjfi" class="animable"></path><path d="M246.22,221.11a28.71,28.71,0,0,1-11.61-10.69,30.9,30.9,0,0,1,0-31,28.8,28.8,0,0,1,11.61-10.7A36,36,0,0,1,263,164.83a32.58,32.58,0,0,1,16.12,3.85,22.82,22.82,0,0,1,10,11L276,186.76q-4.56-8-13.13-8a14.86,14.86,0,0,0-11,4.35q-4.33,4.34-4.34,11.83t4.34,11.83a14.85,14.85,0,0,0,11,4.34q8.67,0,13.13-8l13.13,7.17a23.22,23.22,0,0,1-10,10.85A32.07,32.07,0,0,1,263,225,35.91,35.91,0,0,1,246.22,221.11Z" style="fill: rgb(63, 157, 239); transform-origin: 259.786px 194.916px;" id="el4kauvaejqao" class="animable"></path><g id="el8mq87xphij"><g style="opacity: 0.5; transform-origin: 261.09px 196.55px;" class="animable"><path d="M261.09,252.55a56,56,0,1,1,56-56A56,56,0,0,1,261.09,252.55Zm0-100.62a44.65,44.65,0,1,0,44.65,44.65A44.7,44.7,0,0,0,261.09,151.93Z" id="el6bs4skkjrku" class="animable" style="transform-origin: 261.09px 196.55px;"></path><path d="M246.22,221.11a28.71,28.71,0,0,1-11.61-10.69,30.9,30.9,0,0,1,0-31,28.8,28.8,0,0,1,11.61-10.7A36,36,0,0,1,263,164.83a32.58,32.58,0,0,1,16.12,3.85,22.82,22.82,0,0,1,10,11L276,186.76q-4.56-8-13.13-8a14.86,14.86,0,0,0-11,4.35q-4.33,4.34-4.34,11.83t4.34,11.83a14.85,14.85,0,0,0,11,4.34q8.67,0,13.13-8l13.13,7.17a23.22,23.22,0,0,1-10,10.85A32.07,32.07,0,0,1,263,225,35.91,35.91,0,0,1,246.22,221.11Z" id="el8ewplprewap" class="animable" style="transform-origin: 259.786px 194.916px;"></path></g></g></g><g id="freepik--Padlock--inject-9" class="animable" style="transform-origin: 384.031px 247.436px;"><path d="M419.35,272.64l-10.53-.8,4.62-61.11c.22-2.82-3-10.7-4.94-12.77-19.31-20.73-42.73-7.23-44.26,12.89l-4.33,57.29-10.52-.79L353.65,211c1.43-19,17.39-34.09,36.41-33.34a35.12,35.12,0,0,1,33.62,37.7Z" style="fill: rgb(224, 224, 224); transform-origin: 386.583px 225.137px;" id="elk5rslmkwaq" class="animable"></path><path d="M419.35,272.64s0-.4.07-1.15.13-1.87.23-3.33c.21-2.92.52-7.22.92-12.74s.9-12.29,1.47-20.13q.43-5.88.92-12.56c.25-4.44,1-9.14.4-14.06a34.17,34.17,0,0,0-5.13-14.45c-.37-.56-.72-1.14-1.1-1.7l-1.26-1.62a36.57,36.57,0,0,0-2.78-3.09c-.47-.51-1-.93-1.56-1.4a17.79,17.79,0,0,0-1.63-1.36,32.31,32.31,0,0,0-3.58-2.39,35.58,35.58,0,0,0-8.08-3.5l-2.2-.5-1.1-.26-1.13-.15-2.27-.28c-.76-.07-1.53-.05-2.3-.08a34.55,34.55,0,0,0-18.16,4.78,34.89,34.89,0,0,0-13.49,14.38,36.88,36.88,0,0,0-3.22,9.77c-.51,3.43-.66,7-1,10.52-1.07,14.22-2.18,28.94-3.32,44-.15,2-.31,4-.46,6l-.22-.27,10.52.8-.26.22c.86-11.39,1.71-22.54,2.53-33.37q.62-8.13,1.21-16,.3-3.94.6-7.81a27,27,0,0,1,1.75-7.53A24.92,24.92,0,0,1,375.25,192a15.68,15.68,0,0,1,1.57-1l1.63-.83a25.34,25.34,0,0,1,3.41-1.24,26.8,26.8,0,0,1,3.51-.76c.59-.08,1.19-.1,1.77-.15L388,188l.88,0a24.67,24.67,0,0,1,6.87,1,26.07,26.07,0,0,1,6.16,2.81,25.19,25.19,0,0,1,10.84,15.32,25.79,25.79,0,0,1,.59,6c0,.49,0,1,0,1.47s-.07,1-.11,1.44c-.07,1-.15,1.9-.22,2.84-.14,1.88-.28,3.73-.42,5.54-.56,7.22-1.07,13.87-1.53,19.86-.94,12-1.67,21.35-2.16,27.58l-.06-.08,7.93.64,1.94.16.65.07-.62,0-1.93-.12-8-.57h-.08v-.07c.46-6.24,1.14-15.61,2-27.59.44-6,.94-12.64,1.47-19.87.14-1.81.27-3.65.41-5.53.07-.94.15-1.89.22-2.85,0-.48.07-1,.1-1.44s0-1,0-1.45a25.68,25.68,0,0,0-.59-5.88,25.34,25.34,0,0,0-2.15-5.71,24.6,24.6,0,0,0-8.55-9.35,25.77,25.77,0,0,0-6.06-2.75,24.18,24.18,0,0,0-6.75-1l-.87,0-.87.07c-.58.05-1.16.07-1.74.15a26,26,0,0,0-6.79,2l-1.61.82c-.54.26-1,.63-1.54.94a24.46,24.46,0,0,0-9.3,11.23,26.8,26.8,0,0,0-1.72,7.39c-.19,2.58-.39,5.19-.59,7.81-.39,5.25-.8,10.59-1.2,16-.82,10.83-1.66,22-2.52,33.37l0,.25-.25,0-10.52-.8h-.25l0-.25c.15-2,.3-4,.46-6,1.14-15.08,2.25-29.8,3.33-44,.3-3.56.44-7.08,1-10.57A35,35,0,0,1,363,188.49a37.37,37.37,0,0,1,7.81-6.21,35,35,0,0,1,18.39-4.83c.78,0,1.56,0,2.33.08l2.64.34,1.44.26,2.19.51,1,.28a34.93,34.93,0,0,1,7.69,3.38,33.48,33.48,0,0,1,3.61,2.43,18.16,18.16,0,0,1,1.65,1.37c.53.48,1.1.92,1.58,1.43a34.25,34.25,0,0,1,2.8,3.13l1.27,1.63c.39.57.74,1.16,1.11,1.73a34.44,34.44,0,0,1,5.15,14.61c.6,5-.17,9.71-.43,14.16s-.67,8.66-1,12.59c-.62,7.85-1.14,14.62-1.58,20.15s-.77,9.79-1,12.71c-.12,1.44-.21,2.54-.27,3.29S419.35,272.64,419.35,272.64Z" style="fill: rgb(38, 50, 56); transform-origin: 386.472px 225.047px;" id="el50o9tbzuh4o" class="animable"></path><g id="eltx2e9tdran"><path d="M336.6,232.75h95.47a3.74,3.74,0,0,1,3.74,3.74v73.71a3.4,3.4,0,0,1-3.4,3.4H336.6a0,0,0,0,1,0,0V232.75A0,0,0,0,1,336.6,232.75Z" style="fill: rgb(69, 90, 100); transform-origin: 386.205px 273.175px; transform: rotate(4.57392deg);" class="animable"></path></g><g id="el06xliyuvw7t3"><g style="opacity: 0.3; transform-origin: 386.265px 273.27px;" class="animable"><g id="eldhtb8ilvvkt"><path d="M336.66,232.82h95.09a4.12,4.12,0,0,1,4.12,4.12v73a3.78,3.78,0,0,1-3.78,3.78H336.66a0,0,0,0,1,0,0V232.82A0,0,0,0,1,336.66,232.82Z" class="animable" style="transform-origin: 386.265px 273.27px; transform: rotate(4.32deg);"></path></g></g></g><g id="elvwgmaaxs4ss"><path d="M336.16,232.14h83.92a4.06,4.06,0,0,1,4.06,4.06V308a5,5,0,0,1-5,5H336.3a4.2,4.2,0,0,1-4.2-4.2v-72.6a4.06,4.06,0,0,1,4.06-4.06Z" style="fill: rgb(69, 90, 100); transform-origin: 378.12px 272.57px; transform: rotate(4.32deg);" class="animable"></path></g><g id="el4oi5fgor5gp"><g style="opacity: 0.3; transform-origin: 379.596px 273.622px;" class="animable"><path d="M391.41,266.43a11.29,11.29,0,0,0-10.75-12.13,11.43,11.43,0,0,0-11.76,10.33,11.27,11.27,0,0,0,7.37,11.5l-8.52,15,19.38,1.82-4.72-16.34A11.24,11.24,0,0,0,391.41,266.43Z" id="elvee8ycm3bwl" class="animable" style="transform-origin: 379.596px 273.622px;"></path></g></g><path d="M421.59,308.79c-.13,0,.88-14.06,2.26-31.37s2.62-31.34,2.75-31.33-.87,14.06-2.25,31.37S421.73,308.8,421.59,308.79Z" style="fill: rgb(38, 50, 56); transform-origin: 424.095px 277.44px;" id="elvj7ssvgykq" class="animable"></path><path d="M405.66,236.57c0,.13-12.38-.53-27.63-1.48s-27.62-1.83-27.61-2,12.38.52,27.64,1.47S405.67,236.43,405.66,236.57Z" style="fill: rgb(255, 255, 255); transform-origin: 378.04px 234.825px;" id="elqhazkqak6pn" class="animable"></path><path d="M368.07,270.76a2.68,2.68,0,0,1-.41-.73,10.4,10.4,0,0,1-.7-2.2,12.63,12.63,0,0,1,5.49-13.31,10.93,10.93,0,0,1,2.05-1.06,2.44,2.44,0,0,1,.81-.23c0,.09-1.11.47-2.66,1.58a13,13,0,0,0-5.35,13C367.62,269.65,368.16,270.73,368.07,270.76Z" style="fill: rgb(255, 255, 255); transform-origin: 370.989px 261.995px;" id="elarevwmx6m8m" class="animable"></path><path d="M372.12,276.44c-.08.11-.72-.22-1.44-.73s-1.23-1-1.15-1.12.73.21,1.44.72S372.2,276.33,372.12,276.44Z" style="fill: rgb(255, 255, 255); transform-origin: 370.825px 275.513px;" id="eljy1naa54qjf" class="animable"></path><path d="M387.72,180.33s-.68,0-1.91.12a31.55,31.55,0,0,0-5.15.76,30.32,30.32,0,0,0-23,22.95,31.53,31.53,0,0,0-.77,5.14c-.08,1.23-.09,1.91-.13,1.91a1.47,1.47,0,0,1-.05-.49c0-.33,0-.81,0-1.43a27.75,27.75,0,0,1,.63-5.21,29.9,29.9,0,0,1,23.27-23.21,27.41,27.41,0,0,1,5.21-.61c.62,0,1.1,0,1.43,0A1.47,1.47,0,0,1,387.72,180.33Z" style="fill: rgb(255, 255, 255); transform-origin: 372.213px 195.735px;" id="elocuiebb1mpd" class="animable"></path><path d="M355.69,219.88a9.06,9.06,0,0,1,0-2.95,8.85,8.85,0,0,1,.5-2.91,8.74,8.74,0,0,1,0,2.95A8.85,8.85,0,0,1,355.69,219.88Z" style="fill: rgb(255, 255, 255); transform-origin: 355.942px 216.95px;" id="ely19ydwlj2c" class="animable"></path></g><g id="freepik--Character--inject-9" class="animable animator-active" style="transform-origin: 134.585px 322.964px;"><path d="M123.23,380.25h66.52a4.88,4.88,0,0,1,4.88,4.88v74.95a4.88,4.88,0,0,1-4.88,4.88H123.23a13.31,13.31,0,0,1-13.31-13.31v-58.1A13.31,13.31,0,0,1,123.23,380.25Z" style="fill: rgb(63, 157, 239); transform-origin: 152.275px 422.605px;" id="el21x4bbxbwrb" class="animable"></path><g id="ele98jj7uql7"><g style="opacity: 0.3; transform-origin: 152.275px 422.605px;" class="animable"><path d="M123.23,380.25h66.52a4.88,4.88,0,0,1,4.88,4.88v74.95a4.88,4.88,0,0,1-4.88,4.88H123.23a13.31,13.31,0,0,1-13.31-13.31v-58.1A13.31,13.31,0,0,1,123.23,380.25Z" id="elpe8bj5nohg" class="animable" style="transform-origin: 152.275px 422.605px;"></path></g></g><rect x="94.71" y="380.25" width="84.71" height="84.71" rx="4.05" style="fill: rgb(63, 157, 239); transform-origin: 137.065px 422.605px;" id="elnef3a4sgct" class="animable"></rect><polygon points="135.77 446.13 110.75 425.81 117.85 417.08 134.62 430.7 159.62 403.32 167.92 410.9 135.77 446.13" style="fill: rgb(255, 255, 255); transform-origin: 139.335px 424.725px;" id="eldgt5nv867s" class="animable"></polygon><path d="M166.58,173.8a5.66,5.66,0,0,1,4.82-1.47,3.16,3.16,0,0,0,2.08,0c.45-.24.7-.72,1.05-1.09a2.87,2.87,0,0,1,4.13.09,3.64,3.64,0,0,0,.77.84c1.34.78,3-1.72,4.3-.92a3.24,3.24,0,0,0-1.58,1.13,1.48,1.48,0,0,0,.08,1.82c1.23,1.19,3.46-1.23,4.84-.23.74.54.79,1.86,1.67,2.12a3.16,3.16,0,0,0,1.06,0,2.36,2.36,0,0,1,2.41,2.15c0,1-.52,2.24.21,2.95a2.19,2.19,0,0,0,1.8.35,6.1,6.1,0,0,1-.8,2.66,3.7,3.7,0,0,1,1,5,7.87,7.87,0,0,1,2,2.28,2.77,2.77,0,0,1-.12,2.91,2.28,2.28,0,0,0-.42.56,1.33,1.33,0,0,0,0,.74,13,13,0,0,1,.45,2.88c-.08,1-.85,2-1.81,1.87a1,1,0,0,0-.67,0,.6.6,0,0,0-.25.43,6.38,6.38,0,0,0,0,2.09,2.76,2.76,0,0,1-.41,2,1.19,1.19,0,0,1-1.81.13c.23,1.1.45,2.19.68,3.29a2,2,0,0,1-.27,1.88c-.64.59-1.72,0-2.15-.71s-.51-1.68-1-2.42a5.09,5.09,0,0,1-.55-.92c-.09-.26-.11-.58-.32-.77-.42-.38-1.12.2-1.08.76a2.88,2.88,0,0,0,.79,1.47,1.46,1.46,0,0,1,.28,1.57c-.15.22-.41.36-.56.6-.5.8.67,1.66.77,2.6a2.29,2.29,0,0,1-1,1.76c-.63.57-1.82,1-2.16.21a7.89,7.89,0,0,1-.15-.87,2.13,2.13,0,0,0-.63-.81,4.43,4.43,0,0,1-1.2-2.23c.67.92,1.37,2.12.81,3.12a4.77,4.77,0,0,1-1,1c-.68.64-1.13,1.5-1.8,2.15a2.19,2.19,0,0,1-2.54.57,2.1,2.1,0,0,1-3.62,1.91c-.17-.19-.31-.43-.55-.53a1.43,1.43,0,0,0-.82,0,4.56,4.56,0,0,1-4.31-2l.85-.26a10.59,10.59,0,0,1-4.65-1.61c-1.32-1-2.11-2.9-1.33-4.36.34-.64,1-1.27.73-2-.16-.47-.67-.7-1.13-.89l-5.75-2.34a5.56,5.56,0,0,1-2.5-1.61,1.89,1.89,0,0,1,.28-2.66,5.29,5.29,0,0,0-1.92-2.29c-.94-.63-2.06-.95-3-1.54a3,3,0,0,1-1.71-2.73c.12-1.13,1.73-1.93,2.47-1.07-.08-1.71-3.11-2-3.29-3.67-.14-1.38,1.65-2,2.61-3-.16-.49-.64-.82-.81-1.3-.37-1,.7-1.95,1.7-2.36s2.19-.83,2.48-1.87-.57-2.31,0-3.23a1.22,1.22,0,0,1,1.61-.32c.88-1.92,4.51-.26,5.67-2a.68.68,0,0,0,.15-.47.72.72,0,0,0-.17-.39,8.7,8.7,0,0,0-1.56-1.33,1.65,1.65,0,0,1-.67-1.8c.28-.63,1.49-.55,1.44.13a1.52,1.52,0,0,1,2.29.7,1.62,1.62,0,0,1,2-.09,4.79,4.79,0,0,1,1.38,1.73" style="fill: rgb(38, 50, 56); transform-origin: 172.409px 195.193px;" id="eljcpgtc5rpwa" class="animable"></path><path d="M174.83,196c-.53-2.84-2.56-5.18-4.81-7a7.44,7.44,0,0,0-3.18-1.69,3.11,3.11,0,0,0-3.2,1.21l.12,2c-.34,3.2,2.07,6,3.18,9,.48,1.32.86,2.89,2.13,3.48a3,3,0,0,0,2.15,0C174,202.13,175.37,198.8,174.83,196Z" style="fill: rgb(69, 90, 100); transform-origin: 169.293px 195.217px;" id="elc73syc9xbf8" class="animable"></path><path d="M174.75,210.81a6.45,6.45,0,0,0-.49-8.27c1.2-1.47.8-3.77-.39-5.25a12.5,12.5,0,0,0-4.67-3.15,8.69,8.69,0,0,0-10.06-6.45c-2.22-3.33-7-3.9-10.86-2.82a10.14,10.14,0,0,1-2.85.6,17.11,17.11,0,0,1-2.13-.32c-3.9-.56-7.8,2.15-9.36,5.76a7.44,7.44,0,0,1-.85,1.69,9.65,9.65,0,0,1-1.94,1.52,6.22,6.22,0,0,0-2.44,4.59c-.08,1.51.39,3.13-.26,4.5a21.86,21.86,0,0,0-1.17,1.95c-.75,2.08,1.54,4.23,1.09,6.39-.09.44-.29.85-.42,1.28a3.87,3.87,0,0,0,.21,2.7,5.62,5.62,0,0,1,.83,1.94,6.12,6.12,0,0,1-.34,1.57c-.27,1.29,2.46,6.3,3.57,7l33.34.64a6.23,6.23,0,0,0,4.88-5.31,2.33,2.33,0,0,1,.32-1.23,2.82,2.82,0,0,1,.92-.58c2.16-1.13,2.45-4.08,2.25-6.51a3.11,3.11,0,0,1,0-1A3.82,3.82,0,0,1,174.75,210.81Z" style="fill: rgb(38, 50, 56); transform-origin: 151.574px 205.527px;" id="el5i203ibqshj" class="animable"></path><path d="M165.25,210.76a17.86,17.86,0,0,0-9.31-15.67,22.19,22.19,0,0,0-8.5-2.14,13.53,13.53,0,0,0-7.88,1.57c-1.84.41-8.64,6.51-9.06,13.2-.46,7.43-.73,16.52.15,22.06,1.78,11.15,10.32,12.57,10.32,12.57s-.39,8.83-.39,8.83l6.22,11.53,16-16.33Z" style="fill: rgb(255, 191, 157); transform-origin: 147.661px 227.793px;" id="elyqw2d8kamx" class="animable"></path><path d="M147.32,228.1a2.41,2.41,0,0,0-3.63-1.81,3.22,3.22,0,0,0-1.39,3h0a3,3,0,0,0,2,1.32l.39,0a2.68,2.68,0,0,0,1.8-.61A2.35,2.35,0,0,0,147.32,228.1Z" style="fill: rgb(255, 154, 108); transform-origin: 144.802px 228.281px;" id="elq6yzg9eqbj8" class="animable"></path><path d="M134.4,216.44a1.45,1.45,0,0,0,1.38,1.45,1.38,1.38,0,0,0,1.48-1.29,1.45,1.45,0,0,0-1.38-1.45A1.38,1.38,0,0,0,134.4,216.44Z" style="fill: rgb(38, 50, 56); transform-origin: 135.83px 216.52px;" id="el2v23b91cibr" class="animable"></path><path d="M133,212c.17.19,1.26-.61,2.79-.61s2.67.77,2.84.59-.1-.42-.59-.78a4,4,0,0,0-2.27-.7,3.8,3.8,0,0,0-2.23.72C133.09,211.57,132.93,211.91,133,212Z" style="fill: rgb(38, 50, 56); transform-origin: 135.833px 211.265px;" id="eljrpxkh6vva8" class="animable"></path><path d="M142,224.14a10,10,0,0,0-2.49-.45c-.4,0-.77-.12-.84-.39a2,2,0,0,1,.27-1.16c.36-.95.75-1.95,1.16-3,1.61-4.26,2.77-7.77,2.6-7.83s-1.62,3.34-3.23,7.6c-.39,1.05-.76,2.05-1.11,3a2.26,2.26,0,0,0-.2,1.54,1,1,0,0,0,.64.57,3.11,3.11,0,0,0,.67.1A9.92,9.92,0,0,0,142,224.14Z" style="fill: rgb(38, 50, 56); transform-origin: 140.411px 217.76px;" id="elp4rjjxyxowk" class="animable"></path><path d="M141,242.35a28.44,28.44,0,0,0,14.93-4s-3.94,8-15.1,7Z" style="fill: rgb(255, 154, 108); transform-origin: 148.38px 241.893px;" id="el4ls2jraopb" class="animable"></path><path d="M146.55,225.2c-.25,0-.25,1.66-1.68,2.84s-3.2,1-3.22,1.24.4.32,1.15.34a4.16,4.16,0,0,0,2.69-.93,3.65,3.65,0,0,0,1.3-2.39C146.85,225.6,146.67,225.19,146.55,225.2Z" style="fill: rgb(38, 50, 56); transform-origin: 144.226px 227.41px;" id="elp6bg7sroa48" class="animable"></path><path d="M133.63,206.23c.26.37,1.44.12,2.82.24s2.52.47,2.82.13c.13-.16,0-.53-.5-.91a4.16,4.16,0,0,0-2.23-.78,4,4,0,0,0-2.3.48C133.72,205.7,133.52,206.05,133.63,206.23Z" style="fill: rgb(38, 50, 56); transform-origin: 136.459px 205.819px;" id="el17npjdj2u29" class="animable"></path><path d="M151.85,217.25a1.44,1.44,0,0,1-1.43,1.39A1.37,1.37,0,0,1,149,217.3a1.44,1.44,0,0,1,1.43-1.4A1.36,1.36,0,0,1,151.85,217.25Z" style="fill: rgb(38, 50, 56); transform-origin: 150.425px 217.27px;" id="elw1v5i8wks1l" class="animable"></path><path d="M154.07,212.59c-.19.18-1.24-.66-2.78-.72s-2.69.68-2.85.48.11-.41.62-.75a3.88,3.88,0,0,1,2.29-.62,3.81,3.81,0,0,1,2.2.8C154,212.16,154.16,212.51,154.07,212.59Z" style="fill: rgb(38, 50, 56); transform-origin: 151.244px 211.796px;" id="elit23k88ouyk" class="animable"></path><path d="M154.5,207.43c-.32.34-1.49-.07-2.91-.14s-2.65.14-2.91-.24c-.12-.18.09-.52.63-.83a4.62,4.62,0,0,1,4.69.3C154.49,206.9,154.64,207.26,154.5,207.43Z" style="fill: rgb(38, 50, 56); transform-origin: 151.599px 206.641px;" id="elk6v9v809pmi" class="animable"></path><path d="M163.41,221.32c0-.83,1-2.79,1.78-2.91,2.19-.35,6.14-.17,6.18,5.39,0,7.6-7.59,6.08-7.61,5.87S163.41,224.19,163.41,221.32Z" style="fill: rgb(255, 191, 157); transform-origin: 167.39px 224.117px;" id="ell3ezs6c4obg" class="animable"></path><path d="M165.84,226.88s.13.09.36.19a1.32,1.32,0,0,0,1,0,3.26,3.26,0,0,0,1.49-3,4.26,4.26,0,0,0-.38-1.89,1.53,1.53,0,0,0-1-1,.67.67,0,0,0-.78.37c-.1.21-.05.36-.09.37s-.17-.12-.11-.44a.8.8,0,0,1,.3-.47,1,1,0,0,1,.73-.2,1.86,1.86,0,0,1,1.39,1.17,4.46,4.46,0,0,1,.47,2.11c0,1.53-.81,3-1.91,3.3a1.42,1.42,0,0,1-1.21-.2C165.85,227.06,165.81,226.89,165.84,226.88Z" style="fill: rgb(255, 154, 108); transform-origin: 167.526px 224.125px;" id="elzahb9xahjy" class="animable"></path><path d="M128.77,207.82a4.43,4.43,0,0,0,2.42-4.07c1,.3,2.05-1,2.64-1.89s1.33-1.33,1.28-2.39a1.14,1.14,0,0,1,.08-.61c.15-.3.51-.39.83-.49a5.08,5.08,0,0,0,3.35-3.54,10.6,10.6,0,0,0,5.21.86,4.12,4.12,0,0,0,7-.3,3.68,3.68,0,0,0,2.47,1.82,10.7,10.7,0,0,0,3.15.17,4.35,4.35,0,0,0,2.87,4.94c.27.08.58.17.7.42a1.12,1.12,0,0,1-.11.85,3.43,3.43,0,0,0,2.29,4.37,2.56,2.56,0,0,0,.24,4c.27.16.63.36.59.68a.7.7,0,0,1-.17.33,5,5,0,0,0-1.2,2.51,1.83,1.83,0,0,0,1.51,2,2.46,2.46,0,0,0-1,1.67c0,.66.66,1.33,1.28,1.09a42.47,42.47,0,0,0,4.21-1.07c2.15-2.92-.55-6.14-.77-9.76a23.51,23.51,0,0,0-3.28-10.27,17.37,17.37,0,0,0-2.7-3.67,22.61,22.61,0,0,0-4.18-3.07,20.82,20.82,0,0,0-6.09-2.91c-4.11-1-8.37.52-12.19,2.29a17.8,17.8,0,0,0-4.13,2.43,16.12,16.12,0,0,0-3.48,4.54,20,20,0,0,0-2.75,7.78" style="fill: rgb(38, 50, 56); transform-origin: 149.003px 204.731px;" id="ely97dc22p1w" class="animable"></path><path d="M127.28,205.16a2.7,2.7,0,0,1,.41-.81c.16-.25.39-.55.6-.93a3.5,3.5,0,0,0,.43-1.41,11,11,0,0,0,0-1.89,8.19,8.19,0,0,1,.06-2.25,6.32,6.32,0,0,1,1.94-3.47,9.82,9.82,0,0,1,1.2-.89,4.6,4.6,0,0,0,1.16-1,6.18,6.18,0,0,0,.72-1.43,10,10,0,0,1,1.85-2.93,9.78,9.78,0,0,1,2.95-2.26,8.74,8.74,0,0,1,1.83-.69,7.87,7.87,0,0,1,2-.22c.34,0,.68.05,1,.08s.68.13,1,.19a5,5,0,0,0,2,0c.69-.13,1.35-.38,2.06-.55a13,13,0,0,1,4.38-.39,11.5,11.5,0,0,1,2.23.41,7.58,7.58,0,0,1,3.82,2.53l.28.38-.12,0a8.81,8.81,0,0,1,10.2,6.54l-.06-.08a24.85,24.85,0,0,1,2.66,1.41,8.14,8.14,0,0,1,2.17,2,5.28,5.28,0,0,1,1,2.63,3.6,3.6,0,0,1-.73,2.57v-.13a6.24,6.24,0,0,1,1.74,3.91,6.42,6.42,0,0,1-.79,3.77,5.8,5.8,0,0,1-.51.75c-.18.23-.37.45-.52.68a1.58,1.58,0,0,0-.27.75,4.07,4.07,0,0,0,0,.78,12.92,12.92,0,0,1-.09,2.89,6,6,0,0,1-.75,2.19,3.52,3.52,0,0,1-1.19,1.23c-.39.26-.74.36-.93.5a2.69,2.69,0,0,0-.28.23.87.87,0,0,1,.26-.25c.2-.15.54-.26.92-.52a3.83,3.83,0,0,0,1.15-1.23,6.09,6.09,0,0,0,.71-2.17,12.19,12.19,0,0,0,.06-2.86,4.32,4.32,0,0,1,0-.81,1.76,1.76,0,0,1,.29-.81,6.68,6.68,0,0,1,.53-.69,7.06,7.06,0,0,0,.48-.73,6.32,6.32,0,0,0,.76-3.69,6.15,6.15,0,0,0-1.7-3.79l-.06-.06.05-.06a3.41,3.41,0,0,0,.68-2.44,5,5,0,0,0-1-2.51,8.07,8.07,0,0,0-2.12-1.9,25.3,25.3,0,0,0-2.64-1.39l0,0v-.06a8.61,8.61,0,0,0-9.94-6.36l-.07,0-.05-.07-.27-.36a7.33,7.33,0,0,0-3.71-2.45,11.79,11.79,0,0,0-2.18-.41,13.34,13.34,0,0,0-2.19,0,12.54,12.54,0,0,0-2.12.37c-.69.17-1.36.41-2.06.55a5.47,5.47,0,0,1-1.07.11,7.2,7.2,0,0,1-1-.12c-.35-.06-.68-.14-1-.19s-.66-.08-1-.08a7.85,7.85,0,0,0-1.94.21,9.15,9.15,0,0,0-1.79.67,9.67,9.67,0,0,0-2.9,2.21,10,10,0,0,0-1.83,2.87,6.18,6.18,0,0,1-.75,1.47,4.82,4.82,0,0,1-1.2,1,10.71,10.71,0,0,0-1.19.87,6.47,6.47,0,0,0-.92,1.05,6.22,6.22,0,0,0-1,2.33,8.48,8.48,0,0,0-.08,2.23,10.88,10.88,0,0,1,0,1.89,3.64,3.64,0,0,1-.46,1.45c-.22.38-.46.67-.62.91a4.61,4.61,0,0,0-.35.58Z" style="fill: rgb(69, 90, 100); transform-origin: 151.685px 202.259px;" id="elfk8czl1289t" class="animable"></path><path d="M155.57,186s-.2-.11-.57-.29a5,5,0,0,0-1.65-.49,4.75,4.75,0,0,0-2.5.36,4.92,4.92,0,0,0-2.28,2,3.83,3.83,0,0,0-.38.86,1,1,0,0,0,.05.8l.19.26-.31-.09a3.13,3.13,0,0,0-2.35.28,3,3,0,0,0-1.29,1.4,3.26,3.26,0,0,0-.3,1.25,3.7,3.7,0,0,1,0,.48.4.4,0,0,1,0-.12,2.27,2.27,0,0,1,0-.36,3,3,0,0,1,.25-1.31,3.12,3.12,0,0,1,1.32-1.51,3.33,3.33,0,0,1,2.51-.32l-.12.17a1.16,1.16,0,0,1-.09-1,3.88,3.88,0,0,1,.4-.91,5.1,5.1,0,0,1,2.39-2.14,4.93,4.93,0,0,1,2.61-.32,4.72,4.72,0,0,1,1.67.57,3.37,3.37,0,0,1,.41.26Z" style="fill: rgb(69, 90, 100); transform-origin: 149.871px 188.883px;" id="elq9f26brknu" class="animable"></path><path d="M167.88,194.77s-.08.11-.26.27a5,5,0,0,1-.86.59,3.63,3.63,0,0,1-1.52.45,2.7,2.7,0,0,1-1.89-.57l.17,0-.22.32c-.08.1-.17.19-.26.29a4.71,4.71,0,0,1-3.72,1.4,4.29,4.29,0,0,1-1.19-.27,1.58,1.58,0,0,1-.4-.21,6.68,6.68,0,0,0,1.6.32,4.72,4.72,0,0,0,1.74-.26,4.58,4.58,0,0,0,1.8-1.13l.25-.29.21-.29.08-.1.09.08a2.58,2.58,0,0,0,1.73.54,3.81,3.81,0,0,0,1.46-.38C167.46,195.11,167.86,194.73,167.88,194.77Z" style="fill: rgb(69, 90, 100); transform-origin: 162.805px 196.15px;" id="elrda186u04nd" class="animable"></path><path d="M171.88,201.82s0,.05,0,.14a1.41,1.41,0,0,1-.17.37,2,2,0,0,1-1.23.81,3.83,3.83,0,0,1-2.17-.24c-.39-.14-.79-.28-1.2-.47a2.12,2.12,0,0,1-1-1l0-.12.17.05a8.56,8.56,0,0,1-2.25,1.35,3.89,3.89,0,0,1-2.14.21,2.67,2.67,0,0,1-1.31-.6,2.41,2.41,0,0,1-.28-.28c0-.07-.08-.11-.07-.11s.13.13.4.32a3,3,0,0,0,1.29.52,4,4,0,0,0,2-.26,8.8,8.8,0,0,0,2.19-1.33l.13-.1.05.15,0,.11a2,2,0,0,0,.94.85c.39.18.79.33,1.17.47a3.82,3.82,0,0,0,2.06.29,2.07,2.07,0,0,0,1.19-.71A2.25,2.25,0,0,0,171.88,201.82Z" style="fill: rgb(69, 90, 100); transform-origin: 166.055px 202.141px;" id="elhn25otce7zc" class="animable"></path><path d="M180.08,174.7s-.13,0-.36.06a1.81,1.81,0,0,0-.85.55,2.37,2.37,0,0,0-.57,1.45,6.62,6.62,0,0,0,.28,2.07l0,.13h-.13a4.34,4.34,0,0,0-2.63.8,3.36,3.36,0,0,0-1.45,2.66,3.14,3.14,0,0,0,1.1,2.53l.26.2h-.33a3.93,3.93,0,0,0-2.88,1.26,3.84,3.84,0,0,0-1,2.33,4.09,4.09,0,0,0,.26,1.68c.14.38.26.56.24.57s0,0-.09-.13a2,2,0,0,1-.22-.41,3.91,3.91,0,0,1,.65-4.17,4.09,4.09,0,0,1,3-1.35l-.07.2a3.37,3.37,0,0,1-1.2-2.72,3.5,3.5,0,0,1,.46-1.63,3.7,3.7,0,0,1,1.09-1.2,4.5,4.5,0,0,1,2.77-.81l-.1.12a7.14,7.14,0,0,1-.25-2.13,2.49,2.49,0,0,1,.65-1.52,1.68,1.68,0,0,1,.92-.52,1,1,0,0,1,.28,0Z" style="fill: rgb(69, 90, 100); transform-origin: 175.729px 182.846px;" id="elobx4de2yik" class="animable"></path><path d="M193.61,191.2l-.12.07a3.93,3.93,0,0,1-.38.17,5.33,5.33,0,0,1-1.53.35,6.21,6.21,0,0,1-2.39-.29,5.73,5.73,0,0,1-2.56-1.69h.17a4.83,4.83,0,0,1-3.42,2.34,3.67,3.67,0,0,1-3.78-2h.19a3.06,3.06,0,0,1-.91,1.29,4,4,0,0,1-1.25.7,5.58,5.58,0,0,1-2.32.24,12.91,12.91,0,0,1-1.49-.24,2.79,2.79,0,0,1-.52-.15l.53.08c.35.05.85.14,1.49.18a5.62,5.62,0,0,0,2.25-.27,3.31,3.31,0,0,0,2-1.9l.09-.25.11.24a3.46,3.46,0,0,0,3.56,1.88,4.63,4.63,0,0,0,3.27-2.22l.08-.13.09.12a5.73,5.73,0,0,0,2.46,1.65,6.12,6.12,0,0,0,2.32.33A7,7,0,0,0,193.61,191.2Z" style="fill: rgb(69, 90, 100); transform-origin: 183.455px 191.006px;" id="eltggh3o0q7yc" class="animable"></path><path d="M185.62,202.3s0,.06-.09.14a.72.72,0,0,1-.43.19,3.55,3.55,0,0,1-1.68-.28,4.17,4.17,0,0,1-1.93-1.62,4.24,4.24,0,0,1-.55-3v0l.17.13a4.94,4.94,0,0,1-3.05.41,5.52,5.52,0,0,1-2.31-1,6.18,6.18,0,0,1-1.21-1.18,2.07,2.07,0,0,1-.34-.52,9.28,9.28,0,0,0,1.64,1.57,5.57,5.57,0,0,0,2.25.92,4.77,4.77,0,0,0,2.91-.41l.21-.1,0,.23v0a4.09,4.09,0,0,0,.51,2.87,4,4,0,0,0,1.82,1.58,3.67,3.67,0,0,0,1.6.34A.78.78,0,0,0,185.62,202.3Z" style="fill: rgb(69, 90, 100); transform-origin: 179.91px 199.105px;" id="elu7pj2h0kzts" class="animable"></path><path d="M163.47,174.94a6.53,6.53,0,0,0-.35,2.34,5.39,5.39,0,0,0,.73,2.42,5.26,5.26,0,0,0,4.05,2.48H168l0,.13a6.75,6.75,0,0,0-.29,2.46,7,7,0,0,0,.43,1.93,6.39,6.39,0,0,0,.31.68.58.58,0,0,0,.4.31.37.37,0,0,0,.31-.1c.05,0,.06-.09.07-.09s0,.05,0,.12a.39.39,0,0,1-.34.14.62.62,0,0,1-.49-.32,4,4,0,0,1-.35-.69,6.3,6.3,0,0,1-.49-2,6.64,6.64,0,0,1,.26-2.53l.1.14a5.2,5.2,0,0,1-1.81-.46,5.18,5.18,0,0,1-3.11-4.65,5.16,5.16,0,0,1,.24-1.75,4.12,4.12,0,0,1,.18-.45Q163.46,174.94,163.47,174.94Z" style="fill: rgb(69, 90, 100); transform-origin: 166.116px 181.351px;" id="el7mvpfu898e" class="animable"></path><path d="M168.67,218.69v-1.21l-12.17-3.92h0c-4.34-1.86-10.53-.78-14.17,1.46l-3.16.08,0,0c-3.61-2.85-9.7-3.43-14.43-1.37l.12.51h0s0,.11,0,.21l.1.46c.64,2.79,1.39,5.76,2.14,6.55.51.54,2.21.83,3.59,1,.53.06,1,.1,1.36.12s4.11.26,4.75-.31,1.86-5.13,2.2-6.51l3.24-.07c.38,1.09,1,6,2.6,6.93s8.36.68,9.13-.46a51.31,51.31,0,0,0,2.88-7.08l.07-.13Zm-32.15,3.06c-.68.54-8.05.16-8.93-.76s-1.64-4.77-2-6.28l0-.06c4.21-1.6,9.7-1.09,12.84,1.33C137.82,218.35,136.92,221.4,136.52,221.75Zm17.08,0c-.48.72-6.77,1.29-8.38.28-1.11-.69-1.7-4.09-2.2-6,3.55-2.12,9.62-3,13.47-1.1A41.29,41.29,0,0,1,153.6,221.75Z" style="fill: rgb(38, 50, 56); transform-origin: 146.705px 217.845px;" id="elv4fhm2fdhho" class="animable"></path><g id="el17hmjpx7n5q"><g style="opacity: 0.3; transform-origin: 146.17px 217.893px;" class="animable"><path d="M143.67,216.39s.66,4.76,2,5,3-7,3-7S144.53,215.22,143.67,216.39Z" style="fill: rgb(255, 255, 255); transform-origin: 146.17px 217.893px;" id="elojr2aundls" class="animable"></path></g></g><g id="elvl36ki5k04k"><g style="opacity: 0.3; transform-origin: 129.195px 217.271px;" class="animable"><path d="M126.13,214.87s.67,5.4,2,5.62,4.13-6.37,4.13-6.37S127,213.7,126.13,214.87Z" style="fill: rgb(255, 255, 255); transform-origin: 129.195px 217.271px;" id="el3tz0jmjkxwo" class="animable"></path></g></g><path d="M201.84,233.83s-2.43-3.44-3.91-2.9-3.35,2.19-3.44,3.47.42,2.36,1,2.23a9.39,9.39,0,0,0,2.1-1.47l2.33,2.48-.39,3.58-1.89,1.33-1.5-2.27.1-2.8s-1.54-1-2,1.32-.81,6.36,1.66,8a63.91,63.91,0,0,0,7,3.62l9.84-2.21.78-12.07s3.42-4.59,3.45-6.27-.45-6.77-.45-6.77a1.2,1.2,0,0,0-1.81.76,30.85,30.85,0,0,0-.61,5.66l-2.88,3.67-.67-14.57s-2.18-1-2.55,2.33-.18,11.46-.58,11.51-1.62.22-1.67-1.47-2.37-14.43-2.37-14.43-2.79,1-2.24,3.71,1.61,11.17,1.65,11.81S201.84,233.83,201.84,233.83Z" style="fill: rgb(255, 191, 157); transform-origin: 205.442px 233.49px;" id="eljz1h4ukm2j" class="animable"></path><path d="M206.33,245.68c-.07,0-.27-.37-.71-.91a6.62,6.62,0,0,0-4.63-2.48,6.38,6.38,0,0,1-1.15-.08A2.08,2.08,0,0,1,201,242a5.75,5.75,0,0,1,4.9,2.62C206.29,245.21,206.38,245.66,206.33,245.68Z" style="fill: rgb(255, 154, 108); transform-origin: 203.091px 243.834px;" id="el0vb932z0xgn" class="animable"></path><path d="M201.42,250.22l3.34,21.93-14.22-13a41.07,41.07,0,0,0-10.06-6.42l-.44,0-1.17,25.92c6.21,4.91,11.95,7.4,18.93,12.25a84,84,0,0,0,10.43,5.69c3.72,1.87,9.65,2.92,13.64-1.6,5.57-6.32,1.62-15-1.66-25.25-3.64-11.39-6.19-22.53-6.19-22.53Z" style="fill: rgb(69, 90, 100); transform-origin: 201.765px 272.7px;" id="elht02rhuj8th" class="animable"></path><path d="M208,281.91a22.21,22.21,0,0,1-1.91-4.93,22.63,22.63,0,0,1-1.17-5.16,40.14,40.14,0,0,1,1.63,5A43,43,0,0,1,208,281.91Z" style="fill: rgb(38, 50, 56); transform-origin: 206.46px 276.865px;" id="eld3pn57gx5hv" class="animable"></path><path d="M94.79,445.89,99,458.26S81.21,471.75,82.1,475.52l38.77-11.71-6.37-24.47Z" style="fill: rgb(38, 50, 56); transform-origin: 101.469px 457.43px;" id="elg4mckmw69ip" class="animable"></path><path d="M120.87,463.81l-.83-3.19L83,473.09s-1.5,1.28-.94,2.43Z" style="fill: rgb(69, 90, 100); transform-origin: 101.402px 468.07px;" id="elq5fkmwlgzv" class="animable"></path><path d="M98.33,458.25c.06.19,1,0,2.15.31s1.85,1,2,.85-.47-1.14-1.82-1.51S98.24,458.09,98.33,458.25Z" style="fill: rgb(69, 90, 100); transform-origin: 100.413px 458.603px;" id="eljuwsnsbu9lf" class="animable"></path><path d="M94.77,461.16c0,.2.93.27,1.82.88s1.32,1.39,1.51,1.33,0-1.17-1.13-1.91S94.72,461,94.77,461.16Z" style="fill: rgb(69, 90, 100); transform-origin: 96.4663px 462.173px;" id="el79q3ryuawvs" class="animable"></path><path d="M93.93,466.72c.19,0,.17-1-.63-1.92s-1.81-1-1.84-.86.68.57,1.32,1.32S93.74,466.76,93.93,466.72Z" style="fill: rgb(69, 90, 100); transform-origin: 92.7442px 465.304px;" id="el5hnlfsbn0kh" class="animable"></path><path d="M97.29,453.58c.13.15.92-.38,2-.63s2-.16,2.08-.36-.95-.62-2.24-.31S97.15,453.46,97.29,453.58Z" style="fill: rgb(69, 90, 100); transform-origin: 99.3233px 452.888px;" id="eldyq5qrmkbm8" class="animable"></path><path d="M90.18,450.4,67.25,379.06s1.1-11.66,3.4-15.26S139,341.39,139,341.39s16.76-3.31,27.66,1.15,21.94,9.85,20.52,17.57a21.53,21.53,0,0,1-1,3.45,28.23,28.23,0,0,1-26.85,18l-8.65.61-44.27,6.56a3.37,3.37,0,0,0-2.77,4.17l12.22,47.87S100.06,447.73,90.18,450.4Z" style="fill: rgb(38, 50, 56); transform-origin: 127.277px 395.304px;" id="elolcdwyzrr2k" class="animable"></path><path d="M70,413l-2.74,13.9s-21.88,4.52-22.7,8.31l40,6.1,4.79-24.83Z" style="fill: rgb(38, 50, 56); transform-origin: 66.955px 427.155px;" id="elt2p7le4j3ng" class="animable"></path><path d="M84.54,441.3l.39-3.26L46.4,433.41s-1.9.5-1.89,1.79Z" style="fill: rgb(69, 90, 100); transform-origin: 64.72px 437.355px;" id="elfl0dgflm5ju" class="animable"></path><path d="M66.59,426.59c0,.19.94.43,1.81,1.21s1.25,1.67,1.44,1.62.07-1.22-1-2.14S66.57,426.4,66.59,426.59Z" style="fill: rgb(69, 90, 100); transform-origin: 68.2521px 427.951px;" id="el99wuv6jrs8j" class="animable"></path><path d="M62.13,427.68c-.08.18.72.65,1.26,1.57s.59,1.84.79,1.86.49-1.07-.2-2.21S62.16,427.5,62.13,427.68Z" style="fill: rgb(69, 90, 100); transform-origin: 63.2695px 429.369px;" id="elmke309gl89o" class="animable"></path><path d="M59,432.34c.17.07.59-.86.25-2s-1.19-1.71-1.3-1.56.37.81.64,1.75S58.78,432.3,59,432.34Z" style="fill: rgb(69, 90, 100); transform-origin: 58.6565px 430.55px;" id="elhmo1u1zkso" class="animable"></path><path d="M67.66,421.92c.06.19,1,.06,2.09.3s1.9.73,2,.57-.6-1-1.89-1.24S67.59,421.75,67.66,421.92Z" style="fill: rgb(69, 90, 100); transform-origin: 69.708px 422.151px;" id="elmzk4kcmbdj" class="animable"></path><path d="M83,332.56s-11-1.34-12.74,10.6-6.66,71.92-6.66,71.92l26.07,4.74L97.1,357.2,139,341.39S90.43,331.33,83,332.56Z" style="fill: rgb(38, 50, 56); transform-origin: 101.3px 376.138px;" id="elv709xo5zwq" class="animable"></path><path d="M128.71,323.41s-7,13.39-5.8,15.53S141,350.43,141,350.43l42.46,18.36a36.13,36.13,0,0,0,5.18-17.69c.45-10.83-14.14-29.64-14.14-29.64Z" style="fill: rgb(38, 50, 56); transform-origin: 155.711px 345.125px;" id="el4aaymkhv91t" class="animable"></path><path d="M175.33,343.82a5.89,5.89,0,0,1-1.2-.38l-3.2-1.18a72.09,72.09,0,0,0-10.76-3.2,31.84,31.84,0,0,0-11.14-.32,45.21,45.21,0,0,0-4.51,1.11,5.14,5.14,0,0,1,1.14-.52,19.73,19.73,0,0,1,3.31-.92,29.77,29.77,0,0,1,11.29.18,59.84,59.84,0,0,1,10.79,3.35c1.34.54,2.41,1,3.15,1.33A6,6,0,0,1,175.33,343.82Z" style="fill: rgb(69, 90, 100); transform-origin: 159.925px 340.888px;" id="elwg5k5iwgo2" class="animable"></path><path d="M169.64,333.66a34.07,34.07,0,0,0-3.77-.18c-1.17,0-2.56.15-4.1.27s-3.24.26-5,.51a23.15,23.15,0,0,0-8.59,2.79,27.92,27.92,0,0,0-3,2.24,3.13,3.13,0,0,1,.66-.79,13.58,13.58,0,0,1,2.19-1.74,21.66,21.66,0,0,1,8.7-3c1.78-.27,3.49-.39,5-.48s2.94-.18,4.13-.17a15.44,15.44,0,0,1,2.78.24A3.27,3.27,0,0,1,169.64,333.66Z" style="fill: rgb(69, 90, 100); transform-origin: 157.41px 336.2px;" id="elen866bwai7k" class="animable"></path><path d="M88.72,419.64c.14,0-.68,4.9-1.83,10.88s-2.21,10.81-2.35,10.78.68-4.9,1.83-10.88S88.58,419.62,88.72,419.64Z" style="fill: rgb(69, 90, 100); transform-origin: 86.63px 430.47px;" id="elfvfsvy0v1y6" class="animable"></path><path d="M142.2,340.89s-.06,0-.2.1l-.62.26-2.4.94-9,3.49L98.62,357.61l.15-.19c-.93,6.58-1.94,13.76-3,21.22-2.23,15.59-4.29,29.95-5.91,41.2l0,.22-.21,0-19-3.54-5.22-1-1.36-.28a2.72,2.72,0,0,1-.46-.11l.47.05,1.38.22,5.23.9,19,3.36-.24.18c1.59-11.27,3.61-25.63,5.81-41.23,1.06-7.46,2.09-14.63,3-21.21l0-.15.13-.05,31.41-11.76,9.08-3.35,2.42-.87L142,341Z" style="fill: rgb(69, 90, 100); transform-origin: 102.905px 380.475px;" id="el9ml7hp2p86a" class="animable"></path><path d="M186.67,258.11s-2.57-4.17-5.28-5.39L166,248.87l-2.28-6.2-16.13,7.43-2.74,8.42,0-8.07-4.81-3.71-2.53,2.69-7.61,1.87v.07c-.46.13-10.43,3.23-12.57,11.52-3.48,13.42-14.43,52.25-14.43,52.25L80,332.46,90.9,338s20.76-5.94,26-12.38c4.14-5.12,8.94-18.18,10.5-24.66,0,1.64-.57,4.63-.78,9.56-.32,7.39-3.91,16,.89,16.17s51.22.24,51.22.24,4,.39,1.95-12.13C179.67,308.64,186.67,258.11,186.67,258.11Z" style="fill: rgb(69, 90, 100); transform-origin: 133.335px 290.335px;" id="el6hdmk1jw5yo" class="animable"></path><path d="M136.92,250.31a16.62,16.62,0,0,1,1.22,2.55c.72,1.58,1.62,3.84,2.78,6.19l.08.16-.42,0c1.07-2.36,1.79-4.61,2.38-6.21a16.49,16.49,0,0,1,1-2.57,14.72,14.72,0,0,1-.68,2.67,50.64,50.64,0,0,1-2.26,6.3l-.2.44-.23-.41-.1-.18c-1.19-2.43-2-4.67-2.67-6.29A16,16,0,0,1,136.92,250.31Z" style="fill: rgb(38, 50, 56); transform-origin: 140.44px 255.075px;" id="el9vo2iwyhx78" class="animable"></path><path d="M163.91,249a4.82,4.82,0,0,1-.92.72l-2.63,1.82c-2.23,1.52-5.33,3.58-8.76,5.85L147.52,260l-.34.22,0-.38c-.2-2.84-.35-5.27-.44-7,0-.79-.06-1.46-.09-2a3.2,3.2,0,0,1,0-.73,2.56,2.56,0,0,1,.13.72c.06.55.14,1.21.22,2,.17,1.72.38,4.15.61,7l-.35-.17,4.06-2.69c3.44-2.26,6.57-4.29,8.85-5.73l2.71-1.7A6.66,6.66,0,0,1,163.91,249Z" style="fill: rgb(38, 50, 56); transform-origin: 155.27px 254.61px;" id="ellyp3dievg8f" class="animable"></path><path d="M126.59,323.41a2.85,2.85,0,0,1-.21-.39,6.12,6.12,0,0,1-.35-1.21,28.35,28.35,0,0,1-.43-4.67c0-2,0-4.4.13-7.1s.22-5.72.35-8.94l.06.16a20.47,20.47,0,0,1-4.28-6.63,19.26,19.26,0,0,1-1.37-6,24.08,24.08,0,0,1,.37-5.69,81.2,81.2,0,0,1,2.55-9.29,59.13,59.13,0,0,0,1.64-6.25c.29-1.49.36-2.34.41-2.33a2.56,2.56,0,0,1,0,.61,17.57,17.57,0,0,1-.21,1.75,49.09,49.09,0,0,1-1.49,6.31A86.65,86.65,0,0,0,121.3,283a24.41,24.41,0,0,0-.34,5.59,19.24,19.24,0,0,0,1.35,5.85,20,20,0,0,0,4.18,6.49l.06.07v.1c-.15,3.22-.29,6.23-.42,8.94s-.24,5.09-.23,7.08a32.52,32.52,0,0,0,.29,4.64A10.63,10.63,0,0,0,126.59,323.41Z" style="fill: rgb(38, 50, 56); transform-origin: 123.523px 294.24px;" id="elitny1c5qvfg" class="animable"></path><path d="M140.37,323.22a3.55,3.55,0,0,1-.08-.66l-.12-1.89c-.11-1.63-.21-4-.3-6.94-.18-5.87-.21-14,.18-22.94s1.15-17.05,1.84-22.88c.34-2.92.66-5.27.91-6.9.12-.77.21-1.4.29-1.87a4.8,4.8,0,0,1,.13-.65,2.75,2.75,0,0,1,0,.66c-.06.48-.12,1.1-.21,1.88-.18,1.69-.44,4-.75,6.91-.61,5.84-1.3,13.92-1.69,22.87s-.42,17-.33,22.91c.06,2.89.11,5.25.15,6.95q0,1.17,0,1.89A3.37,3.37,0,0,1,140.37,323.22Z" style="fill: rgb(38, 50, 56); transform-origin: 141.491px 290.855px;" id="el9xv2df7mxtf" class="animable"></path><path d="M167.4,298.89s-.22.14-.65.33a13.53,13.53,0,0,1-1.89.66,21.56,21.56,0,0,1-13.07-.51,14.81,14.81,0,0,1-1.83-.8c-.42-.22-.64-.36-.62-.39s1,.37,2.56.88a24.25,24.25,0,0,0,12.87.5C166.4,299.18,167.37,298.81,167.4,298.89Z" style="fill: rgb(38, 50, 56); transform-origin: 158.369px 299.417px;" id="el9oe7d442bve" class="animable"></path><path d="M177.41,271.5s-.24-.21-.57-.67a13,13,0,0,1-1.18-2.06,15.38,15.38,0,0,1-1.39-7.69,11,11,0,0,1,3.26-7.06,5.24,5.24,0,0,1,2.08-1.18,2.14,2.14,0,0,1,.87-.12,7.18,7.18,0,0,0-2.7,1.57,11.23,11.23,0,0,0-3,6.84,16.37,16.37,0,0,0,1.2,7.49C176.75,270.44,177.48,271.45,177.41,271.5Z" style="fill: rgb(38, 50, 56); transform-origin: 177.352px 262.107px;" id="eltbuuqodr5p" class="animable"></path><path d="M62.74,290.05l54.81,2.72c1.78.08,3.45,1,3.64,2.77l4.33,40.22,28.25,1.17a1.65,1.65,0,1,1-.14,3.29l-27.75-1.15-5.27-.22-57.19-2.37L59,294A3.6,3.6,0,0,1,62.74,290.05Z" style="fill: rgb(224, 224, 224); transform-origin: 107.22px 315.138px;" id="elbmou5zoc0wc" class="animable"></path><path d="M62.74,290.05a2.87,2.87,0,0,0-.87.05,3.62,3.62,0,0,0-2.9,3,9.86,9.86,0,0,0,.11,2.27c.16,1.62.34,3.49.56,5.6.85,8.42,2.09,20.57,3.61,35.51l0,.14h.15l87.51,3.68,2.36.1a2.31,2.31,0,0,0,1.25-.18,1.87,1.87,0,0,0,.13-3.27,2.33,2.33,0,0,0-1.23-.28l-1.16-.05-9.16-.38-17.59-.73.21.2c-1.57-14.41-3-27.84-4.33-39.9a3.11,3.11,0,0,0-.93-2.13,4.12,4.12,0,0,0-2.06-1,18.74,18.74,0,0,0-2.21-.17l-2.15-.1-8.25-.4-14.67-.7-20.88-1-5.59-.24-1.44-.05h-.49l.49.05,1.44.09,5.58.31,20.88,1.1,14.66.75,8.26.42,2.15.11a18.9,18.9,0,0,1,2.15.17,3.78,3.78,0,0,1,1.88.92,2.72,2.72,0,0,1,.81,1.91l4.27,39.9,0,.18h.19l17.58.74,9.17.38,1.16.05a1.74,1.74,0,0,1,1,.22,1.42,1.42,0,0,1-.1,2.49,1.84,1.84,0,0,1-1,.14l-2.35-.1-87.52-3.58.16.15C62,321.53,60.72,309.39,59.82,301q-.33-3.17-.6-5.6a10.3,10.3,0,0,1-.13-2.23,3.48,3.48,0,0,1,.71-1.68,3.56,3.56,0,0,1,2.08-1.31C62.44,290,62.74,290.08,62.74,290.05Z" style="fill: rgb(38, 50, 56); transform-origin: 107.249px 315.22px;" id="elm7oyk4vc1je" class="animable"></path><path d="M92.55,314a3.44,3.44,0,1,1-3.29-3.58A3.43,3.43,0,0,1,92.55,314Z" style="fill: rgb(255, 255, 255); transform-origin: 89.1132px 313.857px;" id="elb1jde6sfoaq" class="animable"></path><path d="M123.18,338.59c-.08,0-1.4-10.24-3-22.89s-2.75-22.92-2.68-22.93,1.4,10.24,3,22.9S123.26,338.58,123.18,338.59Z" style="fill: rgb(38, 50, 56); transform-origin: 120.34px 315.68px;" id="elzdkaesj7vz" class="animable"></path></g><defs>     <filter id="active" height="200%">         <feMorphology in="SourceAlpha" result="DILATED" operator="dilate" radius="2"></feMorphology>                <feFlood flood-color="#32DFEC" flood-opacity="1" result="PINK"></feFlood>        <feComposite in="PINK" in2="DILATED" operator="in" result="OUTLINE"></feComposite>        <feMerge>            <feMergeNode in="OUTLINE"></feMergeNode>            <feMergeNode in="SourceGraphic"></feMergeNode>        </feMerge>    </filter>    <filter id="hover" height="200%">        <feMorphology in="SourceAlpha" result="DILATED" operator="dilate" radius="2"></feMorphology>                <feFlood flood-color="#ff0000" flood-opacity="0.5" result="PINK"></feFlood>        <feComposite in="PINK" in2="DILATED" operator="in" result="OUTLINE"></feComposite>        <feMerge>            <feMergeNode in="OUTLINE"></feMergeNode>            <feMergeNode in="SourceGraphic"></feMergeNode>        </feMerge>            <feColorMatrix type="matrix" values="0   0   0   0   0                0   1   0   0   0                0   0   0   0   0                0   0   0   1   0 "></feColorMatrix>    </filter></defs></svg>